#N canvas 546 91 857 680 10;
#X declare -path ./abstractions;
#X text 35 32 Hello world!;
#X text 35 42 ============;
#X text 112 69 OMG SINE WAVE;
#X text 215 22 ............................;
#X text 215 32 . ____ ._____ _ .......___ .;
#X text 215 42 .| __ )| ____| |....../ _ |.;
#X text 215 62 .| |_) | |___| |___ / ___ |.;
#X text 215 72 .|____/|_____|_____/_/..._|.io;
#X text 215 82 ............................;
#X text 215 52 .| __ || __|.| |...../ _| |.;
#X obj 420 29 declare -path ./abstractions;
#X obj 180 470 tgl 15 0 empty empty empty 17 7 0 10 #fcfcfc #000000
#000000 0 1;
#X obj 90 447 tgl 15 0 empty empty empty 17 7 0 10 #fcfcfc #000000
#000000 0 1;
#X msg 90 467 loop \$1;
#X obj 141 399 tgl 15 0 empty empty empty 17 7 0 10 #fcfcfc #000000
#000000 0 1;
#X obj 616 30 loadbang;
#X obj 231 422 vsl 15 128 0 1 0 0 empty empty empty 0 -9 0 10 #fcfcfc
#000000 #000000 0 1;
#X obj 92 729 output~;
#X msg 40 121 \; pd dsp \$1;
#X obj 40 85 tgl 15 0 empty empty empty 17 7 0 10 #fcfcfc #000000 #000000
0 1;
#X obj 616 54 cyclone/buffer~ samplequan QuantumFreqLong.wav;
#X obj 56 532 cyclone/play~ samplequan 2;
#X obj 128 685 *~;
#X obj 92 687 *~;
#X obj 358 420 vsl 15 128 0 1 0 0 empty empty empty 0 -9 0 10 #fcfcfc
#000000 #000000 0 1;
#X obj 550 418 vsl 15 128 0 1 0 0 empty empty empty 0 -9 0 10 #fcfcfc
#000000 #000000 0 1;
#X text 547 394 delay_amplitude;
#X text 356 396 delay_time;
#X obj 445 419 vsl 15 128 0 1 0 0 empty empty empty 0 -9 0 10 #fcfcfc
#000000 #000000 0 1;
#X text 443 395 delay_feedback;
#X obj 933 463 tgl 15 0 empty empty empty 17 7 0 10 #fcfcfc #000000
#000000 0 1;
#X obj 843 440 tgl 15 0 empty empty empty 17 7 0 10 #fcfcfc #000000
#000000 0 1;
#X msg 843 460 loop \$1;
#X obj 894 392 tgl 15 0 empty empty empty 17 7 0 10 #fcfcfc #000000
#000000 0 1;
#X obj 1033 425 vsl 15 128 0 1 0 0 empty empty empty 0 -9 0 10 #fcfcfc
#000000 #000000 0 1;
#X obj 818 665 *~;
#X obj 1046 228 vsl 15 128 0 1 0 0 empty empty empty 0 -9 0 10 #fcfcfc
#000000 #000000 0 1;
#X obj 1279 481 vsl 15 128 0 1 0 0 empty empty empty 0 -9 0 10 #fcfcfc
#000000 #000000 0 1;
#X text 1276 457 delay_amplitude;
#X text 1044 202 delay_time;
#X obj 1148 437 vsl 15 128 0 1 0 0 empty empty empty 0 -9 0 10 #fcfcfc
#000000 #000000 0 1;
#X text 1146 413 delay_feedback;
#X obj 921 29 loadbang;
#X obj 921 53 cyclone/buffer~ samplemood moodsnippet.wav;
#X obj 809 525 cyclone/play~ samplemood;
#X obj 297 601 auditiveFeedbackDelayStereo~ 1 1 0.5;
#X obj 1085 646 auditiveFeedbackDelay~ 1 0.9 0.5;
#X obj 1278 428 line;
#X obj 1229 173 timer;
#X obj 1229 198 >;
#X floatatom 1275 221 5 0 0 0 - - - 0;
#X obj 1229 124 bng 15 250 50 0 empty empty empty 17 7 0 10 #fcfcfc
#000000 #000000;
#X obj 1295 147 loadbang;
#X obj 1229 146 t b b;
#X obj 1275 244 sel 1;
#X obj 1275 265 bng 15 250 50 0 empty empty empty 17 7 0 10 #fcfcfc
#000000 #000000;
#X msg 1278 397 0 \, 1 100 0.5;
#X obj 1278 622 cyclone/scale 0 1 0 0.5;
#X obj 676 219 cyclone/counter 1;
#X obj 688 261 route 0 1;
#X obj 684 304 bng 15 250 50 0 empty empty empty 17 7 0 10 #fcfcfc
#000000 #000000;
#X obj 722 303 bng 15 250 50 0 empty empty empty 17 7 0 10 #fcfcfc
#000000 #000000;
#X obj 725 169 loadbang;
#X obj 725 193 bng 15 250 50 0 empty empty empty 17 7 0 10 #fcfcfc
#000000 #000000;
#X obj 662 114 tgl 15 0 empty empty empty 17 7 0 10 #fcfcfc #000000
#000000 0 1;
#X obj 662 168 bng 15 250 50 0 empty empty empty 17 7 0 10 #fcfcfc
#000000 #000000;
#X obj 662 147 metro 2000;
#X obj 1319 313 bng 15 250 50 0 empty empty empty 17 7 0 10 #fcfcfc
#000000 #000000;
#X msg 1374 398 1 \, 0 100 0.5;
#X obj 1383 436 print;
#X msg 1295 173 100;
#X connect 11 0 21 0;
#X connect 12 0 13 0;
#X connect 13 0 21 0;
#X connect 14 0 12 0;
#X connect 14 0 11 0;
#X connect 15 0 20 0;
#X connect 16 0 22 1;
#X connect 16 0 23 1;
#X connect 19 0 18 0;
#X connect 21 0 23 0;
#X connect 21 0 45 0;
#X connect 21 1 22 0;
#X connect 21 1 45 1;
#X connect 22 0 17 1;
#X connect 23 0 17 0;
#X connect 24 0 45 2;
#X connect 25 0 45 4;
#X connect 28 0 45 3;
#X connect 30 0 44 0;
#X connect 31 0 32 0;
#X connect 32 0 44 0;
#X connect 33 0 31 0;
#X connect 33 0 30 0;
#X connect 34 0 35 1;
#X connect 35 0 17 0;
#X connect 35 0 17 1;
#X connect 36 0 46 1;
#X connect 36 0 51 0;
#X connect 37 0 57 0;
#X connect 40 0 46 2;
#X connect 42 0 43 0;
#X connect 44 0 46 0;
#X connect 45 0 23 0;
#X connect 45 1 22 0;
#X connect 46 0 35 0;
#X connect 47 0 37 0;
#X connect 48 0 49 0;
#X connect 49 0 50 0;
#X connect 50 0 54 0;
#X connect 51 0 53 0;
#X connect 52 0 70 0;
#X connect 53 0 48 0;
#X connect 53 1 48 1;
#X connect 54 0 55 0;
#X connect 55 0 56 0;
#X connect 56 0 47 0;
#X connect 57 0 46 3;
#X connect 58 0 59 0;
#X connect 59 0 60 0;
#X connect 59 1 61 0;
#X connect 62 0 63 0;
#X connect 63 0 58 2;
#X connect 64 0 66 0;
#X connect 65 0 58 0;
#X connect 66 0 65 0;
#X connect 67 0 68 0;
#X connect 68 0 69 0;
#X connect 68 0 47 0;
#X connect 70 0 49 1;
