#N canvas 153 90 1440 787 10;
#X declare -path ./abstractions;
#X text 35 32 Hello world!;
#X text 35 42 ============;
#X text 118 75 OMG SINE WAVE;
#X text 215 22 ............................;
#X text 215 32 . ____ ._____ _ .......___ .;
#X text 215 42 .| __ )| ____| |....../ _ |.;
#X text 215 62 .| |_) | |___| |___ / ___ |.;
#X text 215 72 .|____/|_____|_____/_/..._|.io;
#X text 215 82 ............................;
#X text 215 52 .| __ || __|.| |...../ _| |.;
#X obj 420 29 declare -path ./abstractions;
#X msg 40 121 \; pd dsp \$1;
#X obj 40 85 tgl 15 0 empty empty empty 17 7 0 10 #fcfcfc #000000 #000000
0 1;
#X obj 559 1893 *~;
#X obj 619 1861 hsl 128 15 0 1 0 0 empty empty empty -2 -8 0 10 #fcfcfc
#000000 #000000 0 1;
#X obj 193 2152 output~;
#X obj 393 434 bng 15 250 50 0 empty empty empty 17 7 0 10 #fcfcfc
#000000 #000000;
#X obj 46 587 liveBufferingToolStereo01~ 10;
#X obj 531 436 bng 15 250 50 0 empty empty empty 17 7 0 10 #fcfcfc
#000000 #000000;
#X obj 184 615 liveBufferingToolStereo02~ 10;
#X obj 670 435 bng 15 250 50 0 empty empty empty 17 7 0 10 #fcfcfc
#000000 #000000;
#X obj 808 433 bng 15 250 50 0 empty empty empty 17 7 0 10 #fcfcfc
#000000 #000000;
#X obj 947 432 bng 15 250 50 0 empty empty empty 17 7 0 10 #fcfcfc
#000000 #000000;
#X obj 323 643 liveBufferingToolStereo03~ 10;
#X obj 461 669 liveBufferingToolStereo04~ 10;
#X obj 600 695 liveBufferingToolStereo05~ 10;
#X obj 202 1480 *~;
#X obj 329 1411 *~;
#X obj 1086 434 bng 15 250 50 0 empty empty empty 17 7 0 10 #fcfcfc
#000000 #000000;
#X obj 739 721 liveBufferingToolStereo06~ 10;
#X obj 393 406 changeBufferSequencer~, f 116;
#X obj 42 247 adc~ 1;
#X obj 43 322 pdcompressor~ 33 40 39, f 23;
#X obj 199 321 pdcompressor~ 33 40 39, f 23;
#X obj 198 247 adc~ 2;
#X floatatom 393 351 5 0 0 0 - - - 0;
#X obj 111 1271 vsl 15 128 0 1 0 0 empty empty empty 0 -9 0 10 #fcfcfc
#000000 #000000 0 1;
#X obj 46 980 timeScrollParam~;
#X obj 1085 277 tgl 15 0 empty empty empty 17 7 0 10 #fcfcfc #000000
#000000 0 1;
#X obj 583 1893 *~;
#N canvas 289 205 949 413 signalRouterStereo 0;
#X obj 127 57 inlet~;
#X obj 173 57 inlet~;
#X text 131 40 L(1) + R(1);
#X obj 235 57 inlet~;
#X obj 281 57 inlet~;
#X text 239 40 L(2) + R(2);
#X obj 343 57 inlet~;
#X obj 389 57 inlet~;
#X text 347 39 L(3) + R(3);
#X obj 449 57 inlet~;
#X obj 495 57 inlet~;
#X text 453 39 L(4) + R(4);
#X obj 554 57 inlet~;
#X obj 600 57 inlet~;
#X text 558 39 L(5) + R(5);
#X text 137 17 depository01;
#X text 233 17 depository02;
#X text 341 17 depository03;
#X text 447 17 depository04;
#X text 552 17 depository05;
#X obj 660 56 inlet~;
#X obj 706 56 inlet~;
#X text 657 16 depository06;
#X text 664 38 L(6) + R(6);
#X obj 260 328 outlet~;
#X obj 393 330 outlet~;
#X obj 393 192 cyclone/matrix~ 6 1;
#X obj 260 192 cyclone/matrix~ 6 1;
#X obj 14 55 inlet;
#X text 11 16 routing messages <f> <f> <f>, f 16;
#X text 247 347 Audio out(L);
#X text 382 349 Audio out(R);
#X connect 0 0 27 0;
#X connect 1 0 26 0;
#X connect 3 0 27 1;
#X connect 4 0 26 1;
#X connect 6 0 27 2;
#X connect 7 0 26 2;
#X connect 9 0 27 3;
#X connect 10 0 26 3;
#X connect 12 0 27 4;
#X connect 13 0 26 4;
#X connect 20 0 27 5;
#X connect 21 0 26 5;
#X connect 26 0 25 0;
#X connect 27 0 24 0;
#X connect 28 0 27 0;
#X connect 28 0 26 0;
#X restore 323 1018 pd signalRouterStereo;
#X f 66;
#X obj 1131 384 s smplStart;
#X obj 114 561 r smplTime;
#X obj 298 588 r smplTime;
#X obj 437 616 r smplTime;
#X obj 575 641 r smplTime;
#X obj 714 669 r smplTime;
#X obj 853 695 r smplTime;
#X obj 1131 355 bng 15 250 50 0 empty empty empty 17 7 0 10 #fcfcfc
#000000 #000000;
#X obj 1131 299 togedge;
#X obj 1215 384 s smplStop;
#X obj 1215 319 bng 15 250 50 0 empty empty empty 17 7 0 10 #fcfcfc
#000000 #000000;
#X floatatom 633 1893 4 0 120 0 - - - 0;
#X floatatom 661 1917 4 0 100 0 - - - 0;
#X floatatom 688 1941 6 0 0 0 - - - 0;
#X floatatom 716 1967 4 0 100 0 - - - 0;
#X text 736 1941 crossover frequency \, Hz.;
#X text 664 1893 output level (dB);
#X text 694 1917 liveness \, feedback percentage (0-100);
#X text 751 1968 High Frequency damping \, percentage (0-100);
#X obj 537 1957 rev3~ 100 93 67 20, f 21;
#X text 40 209 \$1 threshold - \$2 ratio - \$3 response \$4 gain -
\$5 rmspeak - \$6 lookahead, f 37;
#X obj 49 924 hsl 128 15 0 127 0 0 empty empty empty -2 -8 0 10 #fcfcfc
#000000 #000000 0 1;
#X text 3044 2531 widen;
#X obj 586 1192 *~ 5;
#X obj 371 1186 *~ 5;
#X obj 161 2024 clip~ -0.1 0.1;
#X obj 268 2024 clip~ -0.1 0.1;
#N canvas -1415 25 1414 820 ambiPlusScrollFeed 0;
#X obj 349 21 inlet;
#X obj 425 176 tgl 15 0 empty empty empty 17 7 0 10 #fcfcfc #000000
#000000 0 1;
#X obj 335 153 tgl 15 0 empty empty empty 17 7 0 10 #fcfcfc #000000
#000000 0 1;
#X msg 335 173 loop \$1;
#X obj 386 120 tgl 15 0 empty empty empty 17 7 0 10 #fcfcfc #000000
#000000 0 1;
#X obj 606 126 vsl 15 128 0 1 0 0 empty empty empty 0 -9 0 10 #fcfcfc
#000000 #000000 0 1;
#X obj 770 172 vsl 15 128 0 1 0 0 empty empty empty 0 -9 0 10 #fcfcfc
#000000 #000000 0 1;
#X text 775 149 delay_amplitude;
#X text 598 106 delay_time;
#X obj 687 95 vsl 15 128 0 1 0 0 empty empty empty 0 -9 0 10 #fcfcfc
#000000 #000000 0 1;
#X text 683 75 delay_feedback;
#X obj 697 403 scrollAmplitudeParam~;
#X obj 518 74 cyclone/scale 0 127 0 1;
#X obj 822 55 cyclone/buffer~ sample01 fmRoomy.wav;
#X obj 417 235 cyclone/play~ sample01 2;
#X obj 247 485 hsl 128 15 0 1 0 0 empty empty empty -2 -8 0 10 #fcfcfc
#000000 #000000 0 1;
#X obj 822 30 loadbang;
#X obj 798 74 cyclone/buffer~ sample02 QuantumFreq.wav;
#X obj 226 236 cyclone/play~ sample02 2;
#X obj 770 311 cyclone/scale 0 1 0 0.5;
#X obj 246 316 *~;
#X obj 275 316 *~;
#X floatatom 296 296 5 0 0 0 - - - 0;
#X obj 437 315 *~;
#X obj 466 315 *~;
#X floatatom 487 295 5 0 0 0 - - - 0;
#X msg 55 212 start;
#X obj 416 368 auditiveFeedbackDelayStereo~ 1 0.9 0.02;
#X msg 213 156 loopinterp \$1;
#X obj 213 133 tgl 15 0 empty empty empty 17 7 0 10 #fcfcfc #000000
#000000 0 1;
#X msg 115 182 interptime \$1;
#X floatatom 115 161 5 0 0 0 - - - 0;
#X obj 115 110 loadbang;
#X msg 115 131 1000;
#X msg 373 288 1;
#X obj 357 268 loadbang;
#X floatatom 597 452 5 0 0 0 - - - 0;
#N canvas 266 291 450 300 stereoMoogFilterLowpass 0;
#X obj 119 128 inlet~;
#X obj 173 128 inlet~;
#X obj 120 246 outlet~;
#X obj 175 246 outlet~;
#X text 18 15 inlet~ (1) = for the left audiosignal;
#X text 18 31 inlet~ (2) = for the right audiosignal;
#X text 18 70 inlet/argument \$1 = filter cutoff freq;
#X obj 258 127 inlet;
#X obj 118 191 bob~, f 12;
#X obj 208 191 bob~, f 12;
#X floatatom 258 153 5 0 0 0 - - - 0;
#X connect 0 0 8 0;
#X connect 1 0 9 0;
#X connect 7 0 10 0;
#X connect 8 0 2 0;
#X connect 9 0 3 0;
#X connect 10 0 9 1;
#X connect 10 0 8 1;
#X restore 421 483 pd stereoMoogFilterLowpass;
#X obj 299 535 *~ 1;
#X obj 322 558 *~ 1;
#X obj 697 428 cyclone/scale 0 1 500 2000;
#X obj 1058 445 cyclone/prepend start;
#X obj 1059 379 cyclone/join 3, f 20;
#X floatatom 1059 317 5 0 0 0 - - - 0;
#X floatatom 1127 316 5 0 0 0 - - - 0;
#X floatatom 1196 316 5 0 0 0 - - - 0;
#X obj 1059 229 unpack f f f, f 20;
#X obj 1059 272 pipe 1;
#X obj 254 72 loadbang;
#N canvas 767 76 412 259 load 0;
#X obj 32 76 soundfiler;
#X obj 32 100 outlet;
#X obj 32 44 cyclone/loadmess read -resize fmRoomy.wav sample01;
#N canvas 0 22 450 278 (subpatch) 0;
#X array sample01 2.3814e+06 float 2;
#X coords 0 1 2.3814e+06 -1 200 140 1 0 0;
#X restore 142 92 graph;
#X obj 27 15 loadbang;
#X connect 0 0 1 0;
#X connect 2 0 0 0;
#X connect 4 0 2 0;
#X restore 1137 34 pd load \; sample01;
#X floatatom 1137 77 16 0 0 0 - - - 0;
#X text 1127 13 fmRoomy.wav;
#X msg 1124 202 0 2.3814e+06 \$1;
#X floatatom 1267 165 5 0 0 0 - - - 0;
#X text 1265 97 pitch up/down;
#X obj 1270 122 hsl 128 15 0 1000 0 0 empty empty empty -2 -8 0 10
#fcfcfc #000000 #000000 0 1;
#X obj 1267 144 cyclone/scale 0 1000 0 2.3814e+06;
#X msg 55 232 stop;
#X obj 1423 446 cyclone/prepend start;
#X obj 1424 380 cyclone/join 3, f 20;
#X floatatom 1424 318 5 0 0 0 - - - 0;
#X floatatom 1492 317 5 0 0 0 - - - 0;
#X floatatom 1561 317 5 0 0 0 - - - 0;
#X obj 1424 230 unpack f f f, f 20;
#X obj 1424 273 pipe 1;
#X floatatom 1502 78 16 0 0 0 - - - 0;
#X floatatom 1632 166 17 0 0 0 - - - 0;
#X text 1630 98 pitch up/down;
#X obj 1635 123 hsl 128 15 0 1000 0 0 empty empty empty -2 -8 0 10
#fcfcfc #000000 #000000 0 1;
#N canvas 613 436 412 259 load 0;
#X obj 32 76 soundfiler;
#X obj 32 100 outlet;
#N canvas 0 22 450 278 (subpatch) 0;
#X array sample02 1.4112e+06 float 2;
#X coords 0 1 1.4112e+06 -1 200 140 1 0 0;
#X restore 142 92 graph;
#X obj 32 44 cyclone/loadmess read -resize QuantumFreq.wav sample02
;
#X obj 21 20 loadbang;
#X connect 0 0 1 0;
#X connect 3 0 0 0;
#X connect 4 0 3 0;
#X restore 1502 37 pd load \; sample02;
#X msg 1489 203 0 1.4112e+06 \$1;
#X obj 1632 145 cyclone/scale 0 1000 0 1.4112e+06;
#X obj 1578 50 bng 15 250 50 0 empty empty empty 17 7 0 10 #fcfcfc
#000000 #000000;
#X obj 1215 48 bng 15 250 50 0 empty empty empty 17 7 0 10 #fcfcfc
#000000 #000000;
#X text 1597 52 hit bang to size to normal;
#X text 1234 51 hit bang to size to normal;
#X text 1492 16 QuantumFreq.wav;
#X obj 239 644 outlet~;
#X obj 297 644 outlet~;
#X obj 623 407 loadbang;
#X msg 623 429 500;
#X connect 0 0 12 0;
#X connect 1 0 14 0;
#X connect 1 0 18 0;
#X connect 2 0 3 0;
#X connect 3 0 14 0;
#X connect 3 0 18 0;
#X connect 4 0 2 0;
#X connect 4 0 1 0;
#X connect 5 0 27 2;
#X connect 5 0 11 0;
#X connect 6 0 19 0;
#X connect 9 0 27 3;
#X connect 11 0 40 0;
#X connect 12 0 5 0;
#X connect 14 0 23 0;
#X connect 14 1 24 0;
#X connect 15 0 38 1;
#X connect 15 0 39 1;
#X connect 16 0 17 0;
#X connect 16 0 13 0;
#X connect 18 0 20 0;
#X connect 18 1 21 0;
#X connect 19 0 27 4;
#X connect 20 0 27 0;
#X connect 21 0 27 1;
#X connect 22 0 20 1;
#X connect 22 0 21 1;
#X connect 23 0 27 0;
#X connect 24 0 27 1;
#X connect 25 0 23 1;
#X connect 25 0 24 1;
#X connect 26 0 18 0;
#X connect 26 0 14 0;
#X connect 27 0 37 0;
#X connect 27 1 37 1;
#X connect 28 0 18 0;
#X connect 28 0 14 0;
#X connect 29 0 28 0;
#X connect 30 0 18 0;
#X connect 30 0 14 0;
#X connect 31 0 30 0;
#X connect 32 0 33 0;
#X connect 33 0 31 0;
#X connect 34 0 25 0;
#X connect 34 0 22 0;
#X connect 35 0 34 0;
#X connect 36 0 37 2;
#X connect 37 0 38 0;
#X connect 37 1 39 0;
#X connect 38 0 77 0;
#X connect 39 0 78 0;
#X connect 40 0 36 0;
#X connect 41 0 14 0;
#X connect 42 0 41 0;
#X connect 43 0 42 0;
#X connect 44 0 42 1;
#X connect 45 0 42 2;
#X connect 46 0 47 0;
#X connect 46 1 44 0;
#X connect 46 2 45 0;
#X connect 47 0 43 0;
#X connect 48 0 29 0;
#X connect 48 0 4 0;
#X connect 48 0 26 0;
#X connect 49 0 50 0;
#X connect 50 0 52 0;
#X connect 52 0 46 0;
#X connect 53 0 52 0;
#X connect 55 0 56 0;
#X connect 56 0 53 0;
#X connect 57 0 18 0;
#X connect 57 0 14 0;
#X connect 58 0 18 0;
#X connect 59 0 58 0;
#X connect 60 0 59 0;
#X connect 61 0 59 1;
#X connect 62 0 59 2;
#X connect 63 0 64 0;
#X connect 63 1 61 0;
#X connect 63 2 62 0;
#X connect 64 0 60 0;
#X connect 65 0 70 0;
#X connect 66 0 70 0;
#X connect 68 0 71 0;
#X connect 69 0 65 0;
#X connect 70 0 63 0;
#X connect 71 0 66 0;
#X connect 72 0 65 0;
#X connect 73 0 50 0;
#X connect 79 0 80 0;
#X connect 80 0 36 0;
#X restore 631 1365 pd ambiPlusScrollFeed;
#X obj 67 944 s timeSliderScroll;
#X obj 631 1336 r timeSliderScroll;
#X obj 202 855 circularSequencer~, f 104;
#X obj 531 457 del 5;
#X obj 393 455 del 5;
#X obj 670 456 del 5;
#X obj 808 454 del 5;
#X obj 947 453 del 5;
#X obj 1086 455 del 5;
#X obj 1274 353 s resetCircularCounter;
#X obj 645 516 s bufferBANG;
#X connect 12 0 11 0;
#X connect 13 0 60 0;
#X connect 14 0 13 1;
#X connect 14 0 39 1;
#X connect 16 0 73 0;
#X connect 16 0 79 0;
#X connect 17 0 71 0;
#X connect 17 1 71 1;
#X connect 18 0 72 0;
#X connect 18 0 79 0;
#X connect 19 0 71 2;
#X connect 19 1 71 3;
#X connect 20 0 74 0;
#X connect 20 0 79 0;
#X connect 21 0 75 0;
#X connect 21 0 79 0;
#X connect 22 0 76 0;
#X connect 22 0 79 0;
#X connect 23 0 71 4;
#X connect 23 1 71 5;
#X connect 24 0 71 6;
#X connect 24 1 71 7;
#X connect 25 0 71 8;
#X connect 25 1 71 9;
#X connect 26 0 13 0;
#X connect 26 0 66 0;
#X connect 27 0 39 0;
#X connect 27 0 67 0;
#X connect 28 0 77 0;
#X connect 28 0 79 0;
#X connect 29 0 71 10;
#X connect 29 1 71 11;
#X connect 30 0 16 0;
#X connect 30 1 18 0;
#X connect 30 2 20 0;
#X connect 30 3 21 0;
#X connect 30 4 22 0;
#X connect 30 5 28 0;
#X connect 31 0 32 0;
#X connect 32 0 17 0;
#X connect 32 0 19 0;
#X connect 32 0 23 0;
#X connect 32 0 24 0;
#X connect 32 0 25 0;
#X connect 32 0 29 0;
#X connect 33 0 17 1;
#X connect 33 0 19 1;
#X connect 33 0 23 1;
#X connect 33 0 24 1;
#X connect 33 0 25 1;
#X connect 33 0 29 1;
#X connect 34 0 33 0;
#X connect 35 0 30 0;
#X connect 36 0 26 1;
#X connect 36 0 27 1;
#X connect 37 0 40 0;
#X connect 38 0 30 1;
#X connect 38 0 49 0;
#X connect 39 0 60 1;
#X connect 40 0 65 0;
#X connect 40 1 64 0;
#X connect 42 0 17 2;
#X connect 43 0 19 2;
#X connect 44 0 23 2;
#X connect 45 0 24 2;
#X connect 46 0 25 2;
#X connect 47 0 29 2;
#X connect 48 0 41 0;
#X connect 49 0 48 0;
#X connect 49 1 51 0;
#X connect 51 0 50 0;
#X connect 51 0 78 0;
#X connect 52 0 60 2;
#X connect 53 0 60 3;
#X connect 54 0 60 4;
#X connect 55 0 60 5;
#X connect 60 0 66 0;
#X connect 60 1 67 0;
#X connect 62 0 37 0;
#X connect 62 0 69 0;
#X connect 64 0 27 0;
#X connect 65 0 26 0;
#X connect 66 0 15 0;
#X connect 67 0 15 1;
#X connect 68 0 26 0;
#X connect 68 1 27 0;
#X connect 70 0 68 0;
#X connect 71 0 40 1;
#X connect 71 1 40 2;
#X connect 71 2 40 3;
#X connect 71 3 40 4;
#X connect 71 4 40 5;
#X connect 71 5 40 6;
#X connect 71 6 40 7;
#X connect 71 7 40 8;
#X connect 71 8 40 9;
#X connect 71 9 40 10;
#X connect 71 10 40 11;
#X connect 71 11 40 12;
#X connect 72 0 19 3;
#X connect 73 0 17 3;
#X connect 74 0 23 3;
#X connect 75 0 24 3;
#X connect 76 0 25 3;
#X connect 77 0 29 3;
