#N canvas 0 81 1776 874 10;
#X declare -path ./abstractions;
#X text 35 32 Hello world!;
#X text 35 42 ============;
#X text 112 69 OMG SINE WAVE;
#X text 215 22 ............................;
#X text 215 32 . ____ ._____ _ .......___ .;
#X text 215 42 .| __ )| ____| |....../ _ |.;
#X text 215 62 .| |_) | |___| |___ / ___ |.;
#X text 215 72 .|____/|_____|_____/_/..._|.io;
#X text 215 82 ............................;
#X text 215 52 .| __ || __|.| |...../ _| |.;
#X obj 420 29 declare -path ./abstractions;
#X obj 180 470 tgl 15 0 empty empty empty 17 7 0 10 #fcfcfc #000000
#000000 0 1;
#X obj 90 447 tgl 15 0 empty empty empty 17 7 0 10 #fcfcfc #000000
#000000 0 1;
#X msg 90 467 loop \$1;
#X obj 141 399 tgl 15 0 empty empty empty 17 7 0 10 #fcfcfc #000000
#000000 0 1;
#X obj 231 422 vsl 15 128 0 1 0 0 empty empty empty 0 -9 0 10 #fcfcfc
#000000 #000000 0 1;
#X obj 93 741 output~;
#X msg 40 121 \; pd dsp \$1;
#X obj 40 85 tgl 15 0 empty empty empty 17 7 0 10 #fcfcfc #000000 #000000
0 1;
#X obj 56 532 cyclone/play~ samplequan 2;
#X obj 128 685 *~;
#X obj 92 687 *~;
#X obj 358 420 vsl 15 128 0 1 0 0 empty empty empty 0 -9 0 10 #fcfcfc
#000000 #000000 0 1;
#X obj 550 418 vsl 15 128 0 1 0 0 empty empty empty 0 -9 0 10 #fcfcfc
#000000 #000000 0 1;
#X text 547 394 delay_amplitude;
#X text 356 396 delay_time;
#X obj 445 419 vsl 15 128 0 1 0 0 empty empty empty 0 -9 0 10 #fcfcfc
#000000 #000000 0 1;
#X text 443 395 delay_feedback;
#X obj 933 463 tgl 15 0 empty empty empty 17 7 0 10 #fcfcfc #000000
#000000 0 1;
#X obj 843 440 tgl 15 0 empty empty empty 17 7 0 10 #fcfcfc #000000
#000000 0 1;
#X msg 843 460 loop \$1;
#X obj 894 392 tgl 15 0 empty empty empty 17 7 0 10 #fcfcfc #000000
#000000 0 1;
#X obj 1034 422 vsl 15 128 0 1 0 0 empty empty empty 0 -9 0 10 #fcfcfc
#000000 #000000 0 1;
#X obj 818 665 *~;
#X obj 1092 431 vsl 15 128 0 1 0 0 empty empty empty 0 -9 0 10 #fcfcfc
#000000 #000000 0 1;
#X obj 1279 481 vsl 15 128 0 1 0 0 empty empty empty 0 -9 0 10 #fcfcfc
#000000 #000000 0 1;
#X text 1276 457 delay_amplitude;
#X text 1088 407 delay_time;
#X obj 1176 336 vsl 15 128 0 1 0 0 empty empty empty 0 -9 0 10 #fcfcfc
#000000 #000000 0 1;
#X text 1174 315 delay_feedback;
#X obj 1219 29 loadbang;
#X obj 1219 53 cyclone/buffer~ samplemood moodsnippet.wav;
#X obj 809 525 cyclone/play~ samplemood;
#X obj 297 601 auditiveFeedbackDelayStereo~ 1 1 0.5;
#X obj 1278 425 scrollAmplitudeParam~;
#X obj 1278 622 cyclone/scale 0 1 0 0.5;
#X obj 1039 648 auditiveFeedbackDelay~ 1 0.9 0;
#X obj 622 301 liveBufferingTool01~ 2000 1;
#X obj 623 232 pdcompressor~, f 23;
#X floatatom 647 181 5 0 0 0 - - - 0;
#X floatatom 702 183 5 0 0 0 - - - 0;
#X floatatom 747 195 5 0 0 0 - - - 0;
#X obj 391 250 *~;
#X obj 414 210 hsl 128 15 0 2 0 0 empty empty empty -2 -8 0 10 #fcfcfc
#000000 #000000 0 1;
#X obj 638 545 *~;
#X obj 704 362 hsl 128 15 0 2 0 0 empty empty empty -2 -8 0 10 #fcfcfc
#000000 #000000 0 1;
#X obj 650 265 hsl 128 15 0 5000 0 0 empty empty empty -2 -8 0 10 #fcfcfc
#000000 #000000 0 1;
#X obj 511 802 rev3~ 100 90 3000 20;
#X floatatom 627 749 4 0 120 0 - - - 0;
#X floatatom 655 773 4 0 100 0 - - - 0;
#X floatatom 682 797 6 0 0 0 - - - 0;
#X floatatom 710 823 4 0 100 0 - - - 0;
#X floatatom 822 272 5 0 1 0 - - - 0;
#X msg 647 160 33;
#X msg 702 162 40;
#X msg 747 174 39;
#X obj 709 136 loadbang;
#X obj 742 709 loadbang;
#X msg 680 733 120;
#X msg 714 749 98;
#X msg 746 771 73;
#X msg 741 805 59;
#X connect 11 0 19 0;
#X connect 12 0 13 0;
#X connect 13 0 19 0;
#X connect 14 0 12 0;
#X connect 14 0 11 0;
#X connect 15 0 20 1;
#X connect 15 0 21 1;
#X connect 18 0 17 0;
#X connect 19 0 21 0;
#X connect 19 0 43 0;
#X connect 19 1 20 0;
#X connect 19 1 43 1;
#X connect 20 0 16 1;
#X connect 21 0 16 0;
#X connect 22 0 43 2;
#X connect 23 0 43 4;
#X connect 26 0 43 3;
#X connect 28 0 42 0;
#X connect 29 0 30 0;
#X connect 30 0 42 0;
#X connect 31 0 29 0;
#X connect 31 0 28 0;
#X connect 32 0 33 1;
#X connect 33 0 16 0;
#X connect 33 0 16 1;
#X connect 34 0 44 0;
#X connect 34 0 46 1;
#X connect 35 0 45 0;
#X connect 38 0 46 2;
#X connect 40 0 41 0;
#X connect 42 0 46 0;
#X connect 43 0 21 0;
#X connect 43 1 20 0;
#X connect 44 0 35 0;
#X connect 45 0 46 3;
#X connect 46 0 33 0;
#X connect 47 0 54 0;
#X connect 48 0 47 0;
#X connect 49 0 48 1;
#X connect 50 0 48 2;
#X connect 51 0 48 4;
#X connect 52 0 16 0;
#X connect 52 0 16 1;
#X connect 52 0 57 0;
#X connect 53 0 52 1;
#X connect 54 0 16 0;
#X connect 54 0 16 1;
#X connect 54 0 57 0;
#X connect 55 0 54 1;
#X connect 56 0 47 1;
#X connect 57 0 16 0;
#X connect 57 1 16 1;
#X connect 57 2 16 0;
#X connect 57 3 16 1;
#X connect 58 0 57 2;
#X connect 59 0 57 3;
#X connect 60 0 57 4;
#X connect 61 0 57 5;
#X connect 62 0 47 2;
#X connect 63 0 49 0;
#X connect 64 0 50 0;
#X connect 65 0 51 0;
#X connect 66 0 63 0;
#X connect 66 0 64 0;
#X connect 66 0 65 0;
#X connect 67 0 68 0;
#X connect 67 0 69 0;
#X connect 67 0 70 0;
#X connect 67 0 71 0;
#X connect 68 0 58 0;
#X connect 69 0 59 0;
#X connect 70 0 60 0;
#X connect 71 0 61 0;
