#N canvas 86 25 1361 813 10;
#X declare -path ./abstractions;
#X text 35 32 Hello world!;
#X text 35 42 ============;
#X text 112 69 OMG SINE WAVE;
#X text 215 22 ............................;
#X text 215 32 . ____ ._____ _ .......___ .;
#X text 215 42 .| __ )| ____| |....../ _ |.;
#X text 215 62 .| |_) | |___| |___ / ___ |.;
#X text 215 72 .|____/|_____|_____/_/..._|.io;
#X text 215 82 ............................;
#X text 215 52 .| __ || __|.| |...../ _| |.;
#X obj 420 29 declare -path ./abstractions;
#X obj 180 470 tgl 15 0 empty empty empty 17 7 0 10 #fcfcfc #000000
#000000 0 1;
#X obj 90 447 tgl 15 0 empty empty empty 17 7 0 10 #fcfcfc #000000
#000000 0 1;
#X msg 90 467 loop \$1;
#X obj 141 399 tgl 15 0 empty empty empty 17 7 0 10 #fcfcfc #000000
#000000 0 1;
#X obj 616 30 loadbang;
#X obj 231 422 vsl 15 128 0 1 0 0 empty empty empty 0 -9 0 10 #fcfcfc
#000000 #000000 0 1;
#X obj 92 729 output~;
#X msg 40 121 \; pd dsp \$1;
#X obj 40 85 tgl 15 0 empty empty empty 17 7 0 10 #fcfcfc #000000 #000000
0 1;
#X obj 616 54 cyclone/buffer~ samplequan QuantumFreqLong.wav;
#X obj 56 532 cyclone/play~ samplequan 2;
#X obj 128 685 *~;
#X obj 92 687 *~;
#X obj 358 420 vsl 15 128 0 1 0 0 empty empty empty 0 -9 0 10 #fcfcfc
#000000 #000000 0 1;
#X obj 550 418 vsl 15 128 0 1 0 0 empty empty empty 0 -9 0 10 #fcfcfc
#000000 #000000 0 1;
#X text 547 394 delay_amplitude;
#X text 356 396 delay_time;
#X obj 445 419 vsl 15 128 0 1 0 0 empty empty empty 0 -9 0 10 #fcfcfc
#000000 #000000 0 1;
#X text 443 395 delay_feedback;
#X obj 933 463 tgl 15 0 empty empty empty 17 7 0 10 #fcfcfc #000000
#000000 0 1;
#X obj 843 440 tgl 15 0 empty empty empty 17 7 0 10 #fcfcfc #000000
#000000 0 1;
#X msg 843 460 loop \$1;
#X obj 894 392 tgl 15 0 empty empty empty 17 7 0 10 #fcfcfc #000000
#000000 0 1;
#X obj 1034 422 vsl 15 128 0 1 0 0 empty empty empty 0 -9 0 10 #fcfcfc
#000000 #000000 0 1;
#X obj 818 665 *~;
#X obj 1094 431 vsl 15 128 0 1 0 0 empty empty empty 0 -9 0 10 #fcfcfc
#000000 #000000 0 1;
#X obj 1279 481 vsl 15 128 0 1 0 0 empty empty empty 0 -9 0 10 #fcfcfc
#000000 #000000 0 1;
#X text 1276 457 delay_amplitude;
#X text 1088 407 delay_time;
#X obj 1176 336 vsl 15 128 0 1 0 0 empty empty empty 0 -9 0 10 #fcfcfc
#000000 #000000 0 1;
#X text 1174 315 delay_feedback;
#X obj 921 29 loadbang;
#X obj 921 53 cyclone/buffer~ samplemood moodsnippet.wav;
#X obj 809 525 cyclone/play~ samplemood;
#X obj 297 601 auditiveFeedbackDelayStereo~ 1 1 0.5;
#X obj 1278 425 scrollAmplitudeParam~;
#X obj 1278 622 cyclone/scale 0 1 0 0.5;
#X obj 1086 646 auditiveFeedbackDelay~ 1 0.9 0;
#X connect 11 0 21 0;
#X connect 12 0 13 0;
#X connect 13 0 21 0;
#X connect 14 0 12 0;
#X connect 14 0 11 0;
#X connect 15 0 20 0;
#X connect 16 0 22 1;
#X connect 16 0 23 1;
#X connect 19 0 18 0;
#X connect 21 0 23 0;
#X connect 21 0 45 0;
#X connect 21 1 22 0;
#X connect 21 1 45 1;
#X connect 22 0 17 1;
#X connect 23 0 17 0;
#X connect 24 0 45 2;
#X connect 25 0 45 4;
#X connect 28 0 45 3;
#X connect 30 0 44 0;
#X connect 31 0 32 0;
#X connect 32 0 44 0;
#X connect 33 0 31 0;
#X connect 33 0 30 0;
#X connect 34 0 35 1;
#X connect 35 0 17 0;
#X connect 35 0 17 1;
#X connect 36 0 46 0;
#X connect 36 0 48 1;
#X connect 37 0 47 0;
#X connect 40 0 48 2;
#X connect 42 0 43 0;
#X connect 44 0 48 0;
#X connect 45 0 23 0;
#X connect 45 1 22 0;
#X connect 46 0 37 0;
#X connect 47 0 48 3;
#X connect 48 0 35 0;
