#N canvas 0 25 1440 787 10;
#X declare -path ./abstractions;
#X obj 22 23 declare -path ./abstractions;
#X msg 578 36 \; pd dsp \$1;
#X obj 578 17 tgl 15 0 empty empty empty 17 7 0 10 #fcfcfc #000000
#000000 0 1;
#X obj 432 198 bng 15 250 50 0 empty empty empty 17 7 0 10 #fcfcfc
#000000 #000000;
#X obj 85 351 liveBufferingToolStereo01~ 10;
#X obj 570 200 bng 15 250 50 0 empty empty empty 17 7 0 10 #fcfcfc
#000000 #000000;
#X obj 223 379 liveBufferingToolStereo02~ 10;
#X obj 709 199 bng 15 250 50 0 empty empty empty 17 7 0 10 #fcfcfc
#000000 #000000;
#X obj 847 197 bng 15 250 50 0 empty empty empty 17 7 0 10 #fcfcfc
#000000 #000000;
#X obj 986 196 bng 15 250 50 0 empty empty empty 17 7 0 10 #fcfcfc
#000000 #000000;
#X obj 362 407 liveBufferingToolStereo03~ 10;
#X obj 500 433 liveBufferingToolStereo04~ 10;
#X obj 639 459 liveBufferingToolStereo05~ 10;
#X obj 436 936 *~;
#X obj 528 938 *~;
#X obj 1125 198 bng 15 250 50 0 empty empty empty 17 7 0 10 #fcfcfc
#000000 #000000;
#X obj 778 485 liveBufferingToolStereo06~ 10;
#X obj 432 170 changeBufferSequencer~, f 116;
#X obj 23 94 pdcompressor~ 33 40 39, f 23;
#X obj 179 93 pdcompressor~ 33 40 39, f 23;
#X obj 220 771 vsl 15 128 0 1 0 0 empty empty empty 0 -9 0 10 #fcfcfc
#000000 #000000 0 1;
#X obj 52 692 timeScrollParam~;
#X obj 1242 40 tgl 15 0 empty empty empty 17 7 0 10 #fcfcfc #000000
#000000 0 1;
#N canvas 289 205 949 413 signalRouterStereo 0;
#X obj 127 57 inlet~;
#X obj 173 57 inlet~;
#X text 131 40 L(1) + R(1);
#X obj 235 57 inlet~;
#X obj 281 57 inlet~;
#X text 239 40 L(2) + R(2);
#X obj 343 57 inlet~;
#X obj 389 57 inlet~;
#X text 347 39 L(3) + R(3);
#X obj 449 57 inlet~;
#X obj 495 57 inlet~;
#X text 453 39 L(4) + R(4);
#X obj 554 57 inlet~;
#X obj 600 57 inlet~;
#X text 558 39 L(5) + R(5);
#X text 137 17 depository01;
#X text 233 17 depository02;
#X text 341 17 depository03;
#X text 447 17 depository04;
#X text 552 17 depository05;
#X obj 660 56 inlet~;
#X obj 706 56 inlet~;
#X text 657 16 depository06;
#X text 664 38 L(6) + R(6);
#X obj 260 328 outlet~;
#X obj 393 330 outlet~;
#X obj 393 192 cyclone/matrix~ 6 1;
#X obj 260 192 cyclone/matrix~ 6 1;
#X obj 14 55 inlet;
#X text 11 16 routing messages <f> <f> <f>, f 16;
#X text 247 347 Audio out(L);
#X text 382 349 Audio out(R);
#X connect 0 0 27 0;
#X connect 1 0 26 0;
#X connect 3 0 27 1;
#X connect 4 0 26 1;
#X connect 6 0 27 2;
#X connect 7 0 26 2;
#X connect 9 0 27 3;
#X connect 10 0 26 3;
#X connect 12 0 27 4;
#X connect 13 0 26 4;
#X connect 20 0 27 5;
#X connect 21 0 26 5;
#X connect 26 0 25 0;
#X connect 27 0 24 0;
#X connect 28 0 27 0;
#X connect 28 0 26 0;
#X restore 362 782 pd signalRouterStereo;
#X f 66;
#X obj 1288 147 s smplStart;
#X obj 1288 87 bng 15 250 50 0 empty empty empty 17 7 0 10 #fcfcfc
#000000 #000000;
#X obj 1288 62 togedge;
#X obj 1372 147 s smplStop;
#X obj 1372 82 bng 15 250 50 0 empty empty empty 17 7 0 10 #fcfcfc
#000000 #000000;
#X obj 64 631 hsl 128 15 0 127 0 0 empty empty empty -2 -8 0 10 #fcfcfc
#000000 #000000 0 1;
#X text 3044 2531 widen;
#X obj 755 808 *~ 5;
#X obj 362 808 *~ 5;
#N canvas 144 104 1080 757 ambiPlusScrollFeed 0;
#X obj 349 21 inlet;
#X msg 335 173 loop \$1;
#X obj 372 104 tgl 15 0 empty empty empty 17 7 0 10 #fcfcfc #000000
#000000 0 1;
#X obj 697 403 scrollAmplitudeParam~;
#X obj 518 74 cyclone/scale 0 127 0 1;
#X obj 738 54 cyclone/buffer~ sample01 fmRoomy.wav;
#X obj 416 235 cyclone/play~ sample01 2;
#X obj 738 29 loadbang;
#X obj 714 73 cyclone/buffer~ sample02 QuantumFreq.wav;
#X obj 226 236 cyclone/play~ sample02 2;
#X msg 55 212 start;
#X obj 416 368 auditiveFeedbackDelayStereo~ 1 0.9 0.02;
#X msg 217 146 loopinterp \$1;
#N canvas 266 291 450 300 stereoMoogFilterLowpass 0;
#X obj 119 128 inlet~;
#X obj 173 128 inlet~;
#X obj 120 246 outlet~;
#X obj 175 246 outlet~;
#X text 18 15 inlet~ (1) = for the left audiosignal;
#X text 18 31 inlet~ (2) = for the right audiosignal;
#X text 18 70 inlet/argument \$1 = filter cutoff freq;
#X obj 258 127 inlet;
#X obj 118 191 bob~, f 12;
#X obj 208 191 bob~, f 12;
#X connect 0 0 8 0;
#X connect 1 0 9 0;
#X connect 7 0 9 1;
#X connect 7 0 8 1;
#X connect 8 0 2 0;
#X connect 9 0 3 0;
#X restore 421 483 pd stereoMoogFilterLowpass;
#X obj 299 535 *~ 1;
#X obj 322 558 *~ 1;
#X obj 697 428 cyclone/scale 0 1 500 2000;
#X obj 974 444 cyclone/prepend start;
#X obj 975 378 cyclone/join 3, f 20;
#X obj 975 228 unpack f f f, f 20;
#X obj 975 271 pipe 1;
#X obj 254 72 loadbang;
#N canvas 767 76 412 259 load 0;
#X obj 32 76 soundfiler;
#X obj 32 100 outlet;
#X obj 32 44 cyclone/loadmess read -resize fmRoomy.wav sample01;
#N canvas 0 22 450 278 (subpatch) 0;
#X array sample01 2.3814e+06 float 2;
#X coords 0 1 2.3814e+06 -1 200 140 1 0 0;
#X restore 142 92 graph;
#X obj 27 15 loadbang;
#X connect 0 0 1 0;
#X connect 2 0 0 0;
#X connect 4 0 2 0;
#X restore 1053 33 pd load \; sample01;
#X text 1043 12 fmRoomy.wav;
#X msg 1040 201 0 2.3814e+06 \$1;
#X text 1254 110 pitch up/down;
#X obj 1087 142 cyclone/scale 0 1000 0 2.3814e+06;
#X obj 1339 445 cyclone/prepend start;
#X obj 1340 379 cyclone/join 3, f 20;
#X obj 1340 229 unpack f f f, f 20;
#X obj 1340 272 pipe 1;
#N canvas 613 436 412 259 load 0;
#X obj 32 76 soundfiler;
#X obj 32 100 outlet;
#N canvas 0 22 450 278 (subpatch) 0;
#X array sample02 1.4112e+06 float 2;
#X coords 0 1 1.4112e+06 -1 200 140 1 0 0;
#X restore 142 92 graph;
#X obj 32 44 cyclone/loadmess read -resize QuantumFreq.wav sample02
;
#X obj 21 20 loadbang;
#X connect 0 0 1 0;
#X connect 3 0 0 0;
#X connect 4 0 3 0;
#X restore 1532 36 pd load \; sample02;
#X msg 1517 187 0 1.4112e+06 \$1;
#X obj 1294 141 cyclone/scale 0 1000 0 1.4112e+06;
#X text 1522 15 QuantumFreq.wav;
#X obj 239 644 outlet~;
#X obj 297 644 outlet~;
#X obj 623 407 loadbang;
#X msg 623 429 500;
#X obj 246 316 *~ 1;
#X obj 278 316 *~ 1;
#X obj 416 315 *~ 1;
#X obj 481 314 *~ 1;
#X msg 115 182 interptime 1000;
#X connect 0 0 4 0;
#X connect 1 0 6 0;
#X connect 1 0 9 0;
#X connect 2 0 1 0;
#X connect 2 0 9 0;
#X connect 2 0 6 0;
#X connect 2 0 12 0;
#X connect 3 0 16 0;
#X connect 4 0 3 0;
#X connect 4 0 11 2;
#X connect 6 0 41 0;
#X connect 6 1 42 0;
#X connect 7 0 8 0;
#X connect 7 0 5 0;
#X connect 9 0 39 0;
#X connect 9 1 40 0;
#X connect 10 0 9 0;
#X connect 10 0 6 0;
#X connect 11 0 13 0;
#X connect 11 1 13 1;
#X connect 12 0 9 0;
#X connect 12 0 6 0;
#X connect 13 0 14 0;
#X connect 13 1 15 0;
#X connect 14 0 35 0;
#X connect 15 0 36 0;
#X connect 16 0 13 2;
#X connect 17 0 6 0;
#X connect 18 0 17 0;
#X connect 19 0 20 0;
#X connect 19 1 18 1;
#X connect 19 2 18 2;
#X connect 20 0 18 0;
#X connect 21 0 2 0;
#X connect 21 0 10 0;
#X connect 21 0 43 0;
#X connect 22 0 24 0;
#X connect 24 0 19 0;
#X connect 26 0 24 0;
#X connect 27 0 9 0;
#X connect 28 0 27 0;
#X connect 29 0 30 0;
#X connect 29 1 28 1;
#X connect 29 2 28 2;
#X connect 30 0 28 0;
#X connect 31 0 32 0;
#X connect 32 0 29 0;
#X connect 33 0 32 0;
#X connect 37 0 38 0;
#X connect 38 0 13 2;
#X connect 39 0 11 0;
#X connect 40 0 11 1;
#X connect 41 0 11 0;
#X connect 42 0 11 1;
#X connect 43 0 9 0;
#X connect 43 0 6 0;
#X restore 727 873 pd ambiPlusScrollFeed;
#X obj 73 656 s timeSliderScroll;
#X obj 727 844 r timeSliderScroll;
#X obj 241 619 circularSequencer~, f 104;
#X obj 570 221 del 5;
#X obj 432 219 del 5;
#X obj 709 220 del 5;
#X obj 847 218 del 5;
#X obj 986 217 del 5;
#X obj 1125 219 del 5;
#X obj 1431 116 s resetCircularCounter;
#X obj 690 275 s bufferBANG;
#X obj 1205 19 loadbang;
#X obj 1229 364 soundSnippetPicker~;
#X obj 356 91 loadbang;
#N canvas 324 349 450 300 pitchShiftParam 0;
#X obj 54 108 inlet;
#X obj 54 312 outlet;
#X obj 54 239 + 2000;
#X obj 74 209 cyclone/scale 0 20 -10 10;
#X obj 54 159 metro 1000;
#X obj 54 180 random 100;
#X text 18 19 inlet#1 = toggle pitch shifter on/off;
#X text 18 39 outlet#1 = value on length(end-point of smpl-loop);
#X connect 0 0 4 0;
#X connect 2 0 1 0;
#X connect 3 0 2 0;
#X connect 4 0 5 0;
#X connect 5 0 3 0;
#X restore 1229 343 pd pitchShiftParam;
#X obj 495 141 s smplTime;
#X obj 1261 282 s toggleToSoundPicker;
#X obj 601 16 loadbang;
#X obj 436 1132 dac~ 1 2;
#X obj 41 751 loadbang;
#X msg 41 772 1;
#X obj 775 1000 *~ 1;
#X obj 738 999 *~ 1;
#X obj 436 1073 clip~ -0.5 0.5;
#X obj 528 1073 clip~ -0.5 0.5;
#X obj 23 56 adc~ 1;
#X obj 179 60 adc~ 2;
#X obj 738 1025 rev3~ 105 93 67 20, f 32;
#X msg 356 112 10;
#X connect 2 0 1 0;
#X connect 3 0 38 0;
#X connect 3 0 44 0;
#X connect 4 0 36 0;
#X connect 4 1 36 1;
#X connect 5 0 37 0;
#X connect 5 0 44 0;
#X connect 6 0 36 2;
#X connect 6 1 36 3;
#X connect 7 0 39 0;
#X connect 7 0 44 0;
#X connect 8 0 40 0;
#X connect 8 0 44 0;
#X connect 9 0 41 0;
#X connect 9 0 44 0;
#X connect 10 0 36 4;
#X connect 10 1 36 5;
#X connect 11 0 36 6;
#X connect 11 1 36 7;
#X connect 12 0 36 8;
#X connect 12 1 36 9;
#X connect 13 0 56 0;
#X connect 13 0 57 0;
#X connect 14 0 55 0;
#X connect 14 0 58 0;
#X connect 15 0 42 0;
#X connect 15 0 44 0;
#X connect 16 0 36 10;
#X connect 16 1 36 11;
#X connect 17 0 3 0;
#X connect 17 1 5 0;
#X connect 17 2 7 0;
#X connect 17 3 8 0;
#X connect 17 4 9 0;
#X connect 17 5 15 0;
#X connect 18 0 4 0;
#X connect 18 0 6 0;
#X connect 18 0 10 0;
#X connect 18 0 11 0;
#X connect 18 0 12 0;
#X connect 18 0 16 0;
#X connect 19 0 4 1;
#X connect 19 0 6 1;
#X connect 19 0 10 1;
#X connect 19 0 11 1;
#X connect 19 0 12 1;
#X connect 19 0 16 1;
#X connect 20 0 13 1;
#X connect 20 0 14 1;
#X connect 21 0 23 0;
#X connect 22 0 17 1;
#X connect 22 0 26 0;
#X connect 23 0 32 0;
#X connect 23 1 31 0;
#X connect 25 0 24 0;
#X connect 25 0 43 0;
#X connect 26 0 25 0;
#X connect 26 1 28 0;
#X connect 28 0 27 0;
#X connect 28 0 43 0;
#X connect 29 0 21 0;
#X connect 29 0 34 0;
#X connect 31 0 14 0;
#X connect 32 0 13 0;
#X connect 33 0 13 0;
#X connect 33 1 14 0;
#X connect 35 0 33 0;
#X connect 36 0 23 1;
#X connect 36 1 23 2;
#X connect 36 2 23 3;
#X connect 36 3 23 4;
#X connect 36 4 23 5;
#X connect 36 5 23 6;
#X connect 36 6 23 7;
#X connect 36 7 23 8;
#X connect 36 8 23 9;
#X connect 36 9 23 10;
#X connect 36 10 23 11;
#X connect 36 11 23 12;
#X connect 37 0 6 3;
#X connect 38 0 4 3;
#X connect 39 0 10 3;
#X connect 40 0 11 3;
#X connect 41 0 12 3;
#X connect 42 0 16 3;
#X connect 45 0 22 0;
#X connect 46 0 16 6;
#X connect 46 0 12 6;
#X connect 46 0 11 6;
#X connect 46 0 10 6;
#X connect 46 0 6 6;
#X connect 46 0 4 6;
#X connect 47 0 62 0;
#X connect 48 0 46 0;
#X connect 51 0 2 0;
#X connect 53 0 54 0;
#X connect 54 0 20 0;
#X connect 55 0 61 1;
#X connect 56 0 61 0;
#X connect 57 0 52 0;
#X connect 58 0 52 1;
#X connect 59 0 18 0;
#X connect 60 0 19 0;
#X connect 61 0 57 0;
#X connect 61 1 58 0;
#X connect 62 0 17 0;
#X connect 62 0 49 0;
#X connect 62 0 4 2;
#X connect 62 0 6 2;
#X connect 62 0 10 2;
#X connect 62 0 11 2;
#X connect 62 0 12 2;
#X connect 62 0 16 2;
