#N canvas 182 64 974 690 12;
#X obj 118 132 lop~ 10;
#X obj 119 185 delread4~ scratchdelay;
#X obj 93 268 +~;
#X obj 160 301 delwrite~ scratchdelay 2000;
#X obj 389 501 outlet~;
#X obj 21 15 inlet~;
#X obj 328 18 inlet;
#X obj 328 93 f \$1;
#X obj 256 58 loadbang;
#X obj 396 93 f \$2;
#X obj 395 18 inlet;
#X obj 118 228 *~;
#X obj 385 184 lop~ 10;
#X obj 389 462 *~;
#X obj 543 21 inlet;
#X obj 543 95 f \$3;
#X obj 118 156 *~ 100;
#X connect 0 0 16 0;
#X connect 1 0 11 0;
#X connect 2 0 3 0;
#X connect 2 0 13 0;
#X connect 5 0 2 0;
#X connect 6 0 7 0;
#X connect 7 0 0 0;
#X connect 8 0 7 0;
#X connect 8 0 9 0;
#X connect 8 0 15 0;
#X connect 9 0 12 0;
#X connect 10 0 9 0;
#X connect 11 0 2 1;
#X connect 12 0 11 1;
#X connect 13 0 4 0;
#X connect 14 0 15 0;
#X connect 15 0 13 1;
#X connect 16 0 1 0;
