#N canvas -1201 124 974 690 12;
#X obj 290 356 lop~ 10;
#X obj 272 502 +~;
#X text 331 332 delaytime;
#X obj 274 664 outlet~;
#X obj 222 249 inlet~;
#X obj 500 162 inlet;
#X obj 500 237 f \$1;
#X obj 428 202 loadbang;
#X obj 568 237 f \$2;
#X obj 567 162 inlet;
#X floatatom 557 378 5 0 1 0 - - - 0;
#X obj 290 452 *~;
#X obj 556 404 lop~ 10;
#X floatatom 290 331 5 0 1 0 - - - 0;
#X text 596 378 delay_feedback;
#X text 26 70 inlet/argument \$1 = delay_time;
#X text 26 90 inlet/argument \$2 = delay_feedback;
#X text 26 110 inlet/argument \$3 = delay_amplitude;
#X floatatom 711 535 5 0 1 0 - - - 0;
#X obj 715 165 inlet;
#X obj 715 239 f \$3;
#X text 753 534 delay_amplitude;
#X obj 442 281 print delay_time;
#X obj 571 282 print delay_feedback;
#X obj 721 282 print delay_amplitude;
#X obj 290 380 *~ 200;
#X obj 41 666 outlet~;
#X obj 39 209 inlet~;
#X text 270 250 for the audiosignal(R);
#X text 87 211 for the audiosignal(L);
#X obj 39 496 +~;
#X obj 57 469 *~;
#X obj 57 418 *~ 200;
#X text 27 15 inlet~ (1) = for the left audiosignal;
#X text 27 31 inlet~ (2) = for the right audiosignal;
#X obj 57 442 delread4~ scratchdelayL01;
#X obj 52 535 delwrite~ scratchdelayL01 2000;
#X obj 291 409 delread4~ scratchdelayR01;
#X obj 332 537 delwrite~ scratchdelayR01 2000;
#X obj 274 606 *~;
#X obj 41 614 *~;
#X connect 0 0 25 0;
#X connect 0 0 32 0;
#X connect 1 0 38 0;
#X connect 1 0 39 0;
#X connect 4 0 1 0;
#X connect 5 0 6 0;
#X connect 6 0 13 0;
#X connect 6 0 22 0;
#X connect 7 0 6 0;
#X connect 7 0 8 0;
#X connect 7 0 20 0;
#X connect 8 0 10 0;
#X connect 8 0 23 0;
#X connect 9 0 8 0;
#X connect 10 0 12 0;
#X connect 11 0 1 1;
#X connect 12 0 11 1;
#X connect 12 0 31 1;
#X connect 13 0 0 0;
#X connect 18 0 39 1;
#X connect 18 0 40 1;
#X connect 19 0 20 0;
#X connect 20 0 18 0;
#X connect 20 0 24 0;
#X connect 25 0 37 0;
#X connect 27 0 30 0;
#X connect 30 0 36 0;
#X connect 30 0 40 0;
#X connect 31 0 30 1;
#X connect 32 0 35 0;
#X connect 35 0 31 0;
#X connect 37 0 11 0;
#X connect 39 0 3 0;
#X connect 40 0 26 0;
