#N canvas 182 64 974 690 12;
#X obj 114 356 lop~ 10;
#X obj 115 409 delread4~ scratchdelay;
#X obj 96 502 +~;
#X obj 156 537 delwrite~ scratchdelay 2000;
#X text 155 332 delaytime;
#X obj 99 707 outlet~;
#X obj 23 237 inlet~;
#X text 72 238 for the audiosignal;
#X obj 324 162 inlet;
#X obj 324 237 f \$1;
#X obj 252 202 loadbang;
#X obj 392 237 f \$2;
#X obj 391 162 inlet;
#X floatatom 381 378 5 0 1 0 - - - 0;
#X obj 114 452 *~;
#X obj 381 408 lop~ 10;
#X floatatom 114 331 5 0 1 0 - - - 0;
#X text 420 378 delay_feedback;
#X obj 99 668 *~;
#X text 27 15 inlet~ = for the audiosignal;
#X text 26 51 inlet/argument \$1 = delay_time;
#X text 26 71 inlet/argument \$2 = delay_feedback;
#X text 26 91 inlet/argument \$3 = delay_amplitude;
#X floatatom 538 621 5 0 1 0 - - - 0;
#X obj 539 165 inlet;
#X obj 539 239 f \$3;
#X text 580 620 delay_amplitude;
#X obj 266 281 print delay_time;
#X obj 395 282 print delay_feedback;
#X obj 545 282 print delay_amplitude;
#X obj 114 380 *~ 100;
#X connect 0 0 30 0;
#X connect 1 0 14 0;
#X connect 2 0 3 0;
#X connect 2 0 18 0;
#X connect 6 0 2 0;
#X connect 8 0 9 0;
#X connect 9 0 16 0;
#X connect 9 0 27 0;
#X connect 10 0 9 0;
#X connect 10 0 11 0;
#X connect 10 0 25 0;
#X connect 11 0 13 0;
#X connect 11 0 28 0;
#X connect 12 0 11 0;
#X connect 13 0 15 0;
#X connect 14 0 2 1;
#X connect 15 0 14 1;
#X connect 16 0 0 0;
#X connect 18 0 5 0;
#X connect 23 0 18 1;
#X connect 24 0 25 0;
#X connect 25 0 23 0;
#X connect 25 0 29 0;
#X connect 30 0 1 0;
