#N canvas 594 138 673 619 12;
#X obj 113 237 lop~ 10;
#X obj 113 261 *~ 800;
#X obj 113 285 delread4~ scratchdelay;
#X obj 95 383 +~;
#X obj 380 287 lop~ 10;
#X obj 113 333 *~ 0.5;
#X obj 97 485 *~ 0.2;
#X obj 185 425 delwrite~ scratchdelay 2000;
#X text 180 181 delaytime;
#X obj 116 202 hsl 128 15 0 1 0 0 empty empty empty -2 -8 0 10 #fcfcfc
#000000 #000000 0 1;
#X obj 383 254 hsl 128 15 0 1 0 0 empty empty empty -2 -8 0 10 #fcfcfc
#000000 #000000 0 1;
#X text 403 235 delay_amplitude;
#X obj 98 556 outlet~;
#X obj 41 72 inlet~;
#X text 90 73 for the audiosignal;
#X obj 323 43 inlet;
#X obj 323 118 f \$1;
#X obj 251 83 loadbang;
#X obj 391 118 f \$2;
#X obj 390 43 inlet;
#X connect 0 0 1 0;
#X connect 1 0 2 0;
#X connect 2 0 5 0;
#X connect 3 0 6 0;
#X connect 3 0 7 0;
#X connect 4 0 5 1;
#X connect 5 0 3 1;
#X connect 6 0 12 0;
#X connect 9 0 0 0;
#X connect 10 0 4 0;
#X connect 13 0 3 0;
#X connect 15 0 16 0;
#X connect 16 0 9 0;
#X connect 17 0 16 0;
#X connect 17 0 18 0;
#X connect 18 0 10 0;
#X connect 19 0 18 0;
