#N canvas 63 25 1748 967 12;
#X obj 179 509 route 1 2 3 4 5 6, f 54;
#X obj 179 429 cyclone/counter 5;
#X obj 179 459 + 1;
#X obj 390 347 tgl 15 0 empty empty empty 17 7 0 10 #fcfcfc #000000
#000000 0 1;
#X obj 179 536 bng 15 250 50 0 empty empty empty 17 7 0 10 #fcfcfc
#000000 #000000;
#X obj 179 385 metro 1000;
#X obj 390 377 cyclone/togedge;
#X obj 143 336 * 1000;
#X obj 241 536 bng 15 250 50 0 empty empty empty 17 7 0 10 #fcfcfc
#000000 #000000;
#X obj 304 535 bng 15 250 50 0 empty empty empty 17 7 0 10 #fcfcfc
#000000 #000000;
#X obj 366 535 bng 15 250 50 0 empty empty empty 17 7 0 10 #fcfcfc
#000000 #000000;
#X obj 429 535 bng 15 250 50 0 empty empty empty 17 7 0 10 #fcfcfc
#000000 #000000;
#X obj 491 535 bng 15 250 50 0 empty empty empty 17 7 0 10 #fcfcfc
#000000 #000000;
#X text 101 235 choose sample length in seconds;
#X obj 180 293 f \$1;
#X obj 55 235 inlet;
#X obj 35 270 loadbang;
#X text 23 15 inlet/argument \$1 = sets sampletime in seconds;
#X text 23 31 inlet#2 = toggles sequencer(for sampler) on/off;
#X text 26 69 outlet#1 = 1st BANG;
#X text 26 86 outlet#2 = 2nd BANG;
#X text 26 103 outlet#3 = 3rd BANG;
#X text 26 120 outlet#4 = 4th BANG;
#X text 26 137 outlet#5 = 5th BANG;
#X text 26 154 outlet#6 = 6th BANG;
#X text 182 83 BANG toggles recorder on until set sampletime has finished
, f 13;
#X obj 390 260 inlet;
#X text 434 260 toggles sequencer on/off;
#X obj 179 561 outlet;
#X obj 241 561 outlet;
#X obj 304 560 outlet;
#X obj 366 560 outlet;
#X obj 429 559 outlet;
#X obj 491 559 outlet;
#X obj 210 336 s smplTime;
#X connect 0 0 4 0;
#X connect 0 1 8 0;
#X connect 0 2 9 0;
#X connect 0 3 10 0;
#X connect 0 4 11 0;
#X connect 0 5 12 0;
#X connect 1 0 2 0;
#X connect 2 0 0 0;
#X connect 3 0 5 0;
#X connect 3 0 6 0;
#X connect 4 0 28 0;
#X connect 5 0 1 0;
#X connect 6 1 1 2;
#X connect 7 0 5 1;
#X connect 8 0 29 0;
#X connect 9 0 30 0;
#X connect 10 0 31 0;
#X connect 11 0 32 0;
#X connect 12 0 33 0;
#X connect 14 0 7 0;
#X connect 14 0 34 0;
#X connect 15 0 14 0;
#X connect 16 0 14 0;
#X connect 26 0 3 0;
