#N canvas 102 260 1199 542 12;
#X obj 389 70 inlet~;
#X obj 435 70 inlet~;
#X text 393 53 L(1) + R(1);
#X obj 497 70 inlet~;
#X obj 543 70 inlet~;
#X text 501 53 L(2) + R(2);
#X obj 605 70 inlet~;
#X obj 651 70 inlet~;
#X text 609 52 L(3) + R(3);
#X obj 711 70 inlet~;
#X obj 757 70 inlet~;
#X text 715 52 L(4) + R(4);
#X obj 816 70 inlet~;
#X obj 862 70 inlet~;
#X text 820 52 L(5) + R(5);
#X text 399 30 depository01;
#X text 495 30 depository02;
#X text 603 30 depository03;
#X text 709 30 depository04;
#X text 814 30 depository05;
#X obj 922 69 inlet~;
#X obj 968 69 inlet~;
#X text 919 29 depository06;
#X text 926 51 L(6) + R(6);
#X obj 198 38 r resetCircularCounter;
#X obj 16 108 cyclone/counter 5;
#X obj 16 38 r bufferBANG;
#X obj 16 72 del 1;
#N canvas 289 205 949 413 signalMatrixRouterStereo 0;
#X obj 127 57 inlet~;
#X obj 173 57 inlet~;
#X text 131 40 L(1) + R(1);
#X obj 235 57 inlet~;
#X obj 281 57 inlet~;
#X text 239 40 L(2) + R(2);
#X obj 343 57 inlet~;
#X obj 389 57 inlet~;
#X text 347 39 L(3) + R(3);
#X obj 449 57 inlet~;
#X obj 495 57 inlet~;
#X text 453 39 L(4) + R(4);
#X obj 554 57 inlet~;
#X obj 600 57 inlet~;
#X text 558 39 L(5) + R(5);
#X text 137 17 depository01;
#X text 233 17 depository02;
#X text 341 17 depository03;
#X text 447 17 depository04;
#X text 552 17 depository05;
#X obj 660 56 inlet~;
#X obj 706 56 inlet~;
#X text 657 16 depository06;
#X text 664 38 L(6) + R(6);
#X obj 14 55 inlet;
#X text 11 16 routing messages <f> <f> <f>, f 16;
#X obj 195 192 cyclone/matrix~ 6 6;
#X obj 393 192 cyclone/matrix~ 6 6;
#X text 70 320 L(1) + R(1);
#X text 63 336 depository01;
#X obj 52 297 outlet~;
#X obj 109 297 outlet~;
#X obj 174 297 outlet~;
#X obj 231 297 outlet~;
#X text 185 336 depository02;
#X text 192 320 L(2) + R(2);
#X obj 298 297 outlet~;
#X obj 355 297 outlet~;
#X text 315 320 L(3) + R(3);
#X text 308 336 depository03;
#X obj 423 297 outlet~;
#X obj 480 297 outlet~;
#X text 440 320 L(4) + R(4);
#X text 433 336 depository04;
#X obj 550 297 outlet~;
#X obj 607 297 outlet~;
#X text 567 320 L(5) + R(5);
#X text 560 335 depository05;
#X obj 681 297 outlet~;
#X obj 738 297 outlet~;
#X text 698 320 L(6) + R(6);
#X text 691 335 depository06;
#X connect 0 0 26 0;
#X connect 1 0 27 0;
#X connect 3 0 26 1;
#X connect 4 0 27 1;
#X connect 6 0 26 2;
#X connect 7 0 27 2;
#X connect 9 0 26 3;
#X connect 10 0 27 3;
#X connect 12 0 26 4;
#X connect 13 0 27 4;
#X connect 20 0 26 5;
#X connect 21 0 27 5;
#X connect 24 0 26 0;
#X connect 24 0 27 0;
#X connect 26 0 30 0;
#X connect 26 1 32 0;
#X connect 26 2 36 0;
#X connect 26 3 40 0;
#X connect 26 4 44 0;
#X connect 26 5 48 0;
#X connect 27 0 31 0;
#X connect 27 1 33 0;
#X connect 27 2 37 0;
#X connect 27 3 41 0;
#X connect 27 4 45 0;
#X connect 27 5 49 0;
#X restore 355 337 pd signalMatrixRouterStereo;
#X f 71;
#X text 310 445 L(1) + R(1);
#X obj 292 422 outlet~;
#X obj 349 422 outlet~;
#X obj 414 422 outlet~;
#X obj 471 422 outlet~;
#X text 432 445 L(2) + R(2);
#X obj 538 422 outlet~;
#X obj 595 422 outlet~;
#X text 555 445 L(3) + R(3);
#X obj 663 422 outlet~;
#X obj 720 422 outlet~;
#X text 680 445 L(4) + R(4);
#X obj 790 422 outlet~;
#X obj 847 422 outlet~;
#X text 807 445 L(5) + R(5);
#X obj 921 422 outlet~;
#X obj 978 422 outlet~;
#X text 938 445 L(6) + R(6);
#X text 303 461 bufferTime#6;
#X text 425 461 bufferTime#5;
#X text 548 461 bufferTime#4;
#X text 673 461 bufferTime#3;
#X text 800 460 bufferTime#2;
#X text 931 460 bufferTime#1;
#X text 303 478 PAST, f 12;
#X text 931 476 PRESENT, f 12;
#N canvas -1440 25 1440 847 matrixCommands 0;
#X obj 28 26 inlet;
#X obj 1870 743 outlet;
#X obj 166 267 tgl 15 0 empty empty empty 17 7 0 10 #fcfcfc #000000
#000000 0 1;
#X obj 302 265 tgl 15 0 empty empty empty 17 7 0 10 #fcfcfc #000000
#000000 0 1;
#X msg 166 301 0 0 \$1;
#X obj 554 266 tgl 15 0 empty empty empty 17 7 0 10 #fcfcfc #000000
#000000 0 1;
#X obj 162 232 unpack f f f f f f, f 102;
#X obj 176 370 cyclone/zl change;
#X obj 302 362 cyclone/zl change;
#X obj 428 352 cyclone/zl change;
#X obj 39 142 loadbang;
#X obj 554 341 cyclone/zl change;
#X msg 302 299 1 1 \$1;
#X msg 428 293 2 2 \$1;
#X obj 428 267 tgl 15 0 empty empty empty 17 7 0 10 #fcfcfc #000000
#000000 0 1;
#X msg 554 300 3 3 \$1;
#X obj 681 268 tgl 15 0 empty empty empty 17 7 0 10 #fcfcfc #000000
#000000 0 1;
#X obj 681 331 cyclone/zl change;
#X msg 681 299 4 4 \$1;
#X obj 808 270 tgl 15 0 empty empty empty 17 7 0 10 #fcfcfc #000000
#000000 0 1;
#X obj 808 321 cyclone/zl change;
#X msg 808 295 5 5 \$1;
#X msg 162 184 1 1 1 1 1 1;
#X msg 256 183 0 0 0 0 0 0;
#X obj 976 262 tgl 15 0 empty empty empty 17 7 0 10 #fcfcfc #000000
#000000 0 1;
#X obj 1112 260 tgl 15 0 empty empty empty 17 7 0 10 #fcfcfc #000000
#000000 0 1;
#X obj 1364 261 tgl 15 0 empty empty empty 17 7 0 10 #fcfcfc #000000
#000000 0 1;
#X obj 972 227 unpack f f f f f f, f 102;
#X obj 986 365 cyclone/zl change;
#X obj 1112 357 cyclone/zl change;
#X obj 1238 347 cyclone/zl change;
#X obj 1364 336 cyclone/zl change;
#X obj 1238 262 tgl 15 0 empty empty empty 17 7 0 10 #fcfcfc #000000
#000000 0 1;
#X obj 1491 263 tgl 15 0 empty empty empty 17 7 0 10 #fcfcfc #000000
#000000 0 1;
#X obj 1491 326 cyclone/zl change;
#X obj 1618 265 tgl 15 0 empty empty empty 17 7 0 10 #fcfcfc #000000
#000000 0 1;
#X obj 1618 316 cyclone/zl change;
#X msg 972 179 1 1 1 1 1 1;
#X msg 1066 178 0 0 0 0 0 0;
#X msg 976 296 0 1 \$1;
#X msg 1112 294 1 2 \$1;
#X msg 1238 288 2 3 \$1;
#X msg 1364 295 3 4 \$1;
#X msg 1491 294 4 5 \$1;
#X obj 119 590 tgl 15 0 empty empty empty 17 7 0 10 #fcfcfc #000000
#000000 0 1;
#X obj 255 588 tgl 15 0 empty empty empty 17 7 0 10 #fcfcfc #000000
#000000 0 1;
#X obj 507 589 tgl 15 0 empty empty empty 17 7 0 10 #fcfcfc #000000
#000000 0 1;
#X obj 115 555 unpack f f f f f f, f 102;
#X obj 129 693 cyclone/zl change;
#X obj 255 685 cyclone/zl change;
#X obj 381 675 cyclone/zl change;
#X obj 507 664 cyclone/zl change;
#X obj 381 590 tgl 15 0 empty empty empty 17 7 0 10 #fcfcfc #000000
#000000 0 1;
#X obj 634 591 tgl 15 0 empty empty empty 17 7 0 10 #fcfcfc #000000
#000000 0 1;
#X obj 634 654 cyclone/zl change;
#X obj 761 593 tgl 15 0 empty empty empty 17 7 0 10 #fcfcfc #000000
#000000 0 1;
#X obj 761 644 cyclone/zl change;
#X msg 115 507 1 1 1 1 1 1;
#X msg 209 506 0 0 0 0 0 0;
#X obj 929 585 tgl 15 0 empty empty empty 17 7 0 10 #fcfcfc #000000
#000000 0 1;
#X obj 1065 583 tgl 15 0 empty empty empty 17 7 0 10 #fcfcfc #000000
#000000 0 1;
#X obj 1317 584 tgl 15 0 empty empty empty 17 7 0 10 #fcfcfc #000000
#000000 0 1;
#X obj 925 550 unpack f f f f f f, f 102;
#X obj 939 688 cyclone/zl change;
#X obj 1065 680 cyclone/zl change;
#X obj 1191 670 cyclone/zl change;
#X obj 1317 659 cyclone/zl change;
#X obj 1191 585 tgl 15 0 empty empty empty 17 7 0 10 #fcfcfc #000000
#000000 0 1;
#X obj 1444 586 tgl 15 0 empty empty empty 17 7 0 10 #fcfcfc #000000
#000000 0 1;
#X obj 1444 649 cyclone/zl change;
#X obj 1571 588 tgl 15 0 empty empty empty 17 7 0 10 #fcfcfc #000000
#000000 0 1;
#X obj 1571 639 cyclone/zl change;
#X msg 925 502 1 1 1 1 1 1;
#X msg 1019 501 0 0 0 0 0 0;
#X obj 110 914 tgl 15 0 empty empty empty 17 7 0 10 #fcfcfc #000000
#000000 0 1;
#X obj 246 912 tgl 15 0 empty empty empty 17 7 0 10 #fcfcfc #000000
#000000 0 1;
#X obj 498 913 tgl 15 0 empty empty empty 17 7 0 10 #fcfcfc #000000
#000000 0 1;
#X obj 106 879 unpack f f f f f f, f 102;
#X obj 120 1017 cyclone/zl change;
#X obj 246 1009 cyclone/zl change;
#X obj 372 999 cyclone/zl change;
#X obj 498 988 cyclone/zl change;
#X obj 372 914 tgl 15 0 empty empty empty 17 7 0 10 #fcfcfc #000000
#000000 0 1;
#X obj 625 915 tgl 15 0 empty empty empty 17 7 0 10 #fcfcfc #000000
#000000 0 1;
#X obj 625 978 cyclone/zl change;
#X obj 752 917 tgl 15 0 empty empty empty 17 7 0 10 #fcfcfc #000000
#000000 0 1;
#X obj 752 968 cyclone/zl change;
#X msg 106 831 1 1 1 1 1 1;
#X msg 200 830 0 0 0 0 0 0;
#X obj 920 909 tgl 15 0 empty empty empty 17 7 0 10 #fcfcfc #000000
#000000 0 1;
#X obj 1056 907 tgl 15 0 empty empty empty 17 7 0 10 #fcfcfc #000000
#000000 0 1;
#X obj 1308 908 tgl 15 0 empty empty empty 17 7 0 10 #fcfcfc #000000
#000000 0 1;
#X obj 916 874 unpack f f f f f f, f 102;
#X obj 930 1012 cyclone/zl change;
#X obj 1056 1004 cyclone/zl change;
#X obj 1182 994 cyclone/zl change;
#X obj 1308 983 cyclone/zl change;
#X obj 1182 909 tgl 15 0 empty empty empty 17 7 0 10 #fcfcfc #000000
#000000 0 1;
#X obj 1435 910 tgl 15 0 empty empty empty 17 7 0 10 #fcfcfc #000000
#000000 0 1;
#X obj 1435 973 cyclone/zl change;
#X obj 1562 912 tgl 15 0 empty empty empty 17 7 0 10 #fcfcfc #000000
#000000 0 1;
#X obj 1562 963 cyclone/zl change;
#X msg 916 826 1 1 1 1 1 1;
#X msg 1010 825 0 0 0 0 0 0;
#X msg 1618 290 5 0 \$1;
#X msg 119 624 0 2 \$1;
#X msg 255 622 1 3 \$1;
#X msg 381 616 2 4 \$1;
#X msg 507 622 3 5 \$1;
#X msg 634 622 4 0 \$1;
#X msg 761 618 5 1 \$1;
#X msg 930 619 0 3 \$1;
#X msg 1065 617 1 4 \$1;
#X msg 1191 611 2 5 \$1;
#X msg 1317 618 3 0 \$1;
#X msg 1444 617 4 1 \$1;
#X msg 1571 613 5 2 \$1;
#X msg 110 948 0 4 \$1;
#X msg 246 946 1 5 \$1;
#X msg 372 940 2 0 \$1;
#X msg 498 947 3 1 \$1;
#X msg 625 946 4 2 \$1;
#X msg 752 942 5 3 \$1;
#X msg 920 943 0 5 \$1;
#X msg 1056 941 1 0 \$1;
#X msg 1182 935 2 1 \$1;
#X msg 1308 942 3 2 \$1;
#X msg 1435 941 4 3 \$1;
#X msg 1562 937 5 4 \$1;
#X obj 311 123 r resetCircularCounter;
#X obj 162 123 sel 5, f 12;
#X obj 925 441 sel 2, f 12;
#X obj 916 766 sel 0, f 12;
#X obj 972 118 sel 4, f 12;
#X obj 106 770 sel 1, f 12;
#X obj 115 446 sel 3, f 12;
#X obj 1120 117 r resetCircularCounter;
#X obj 261 447 r resetCircularCounter;
#X obj 1034 441 r resetCircularCounter;
#X obj 268 771 r resetCircularCounter;
#X obj 1067 769 r resetCircularCounter;
#X connect 0 0 130 0;
#X connect 0 0 131 0;
#X connect 0 0 132 0;
#X connect 0 0 133 0;
#X connect 0 0 134 0;
#X connect 0 0 135 0;
#X connect 2 0 4 0;
#X connect 3 0 12 0;
#X connect 4 0 7 0;
#X connect 5 0 15 0;
#X connect 6 0 2 0;
#X connect 6 1 3 0;
#X connect 6 2 14 0;
#X connect 6 3 5 0;
#X connect 6 4 16 0;
#X connect 6 5 19 0;
#X connect 7 0 1 0;
#X connect 8 0 1 0;
#X connect 9 0 1 0;
#X connect 10 0 22 0;
#X connect 11 0 1 0;
#X connect 12 0 8 0;
#X connect 13 0 9 0;
#X connect 14 0 13 0;
#X connect 15 0 11 0;
#X connect 16 0 18 0;
#X connect 17 0 1 0;
#X connect 18 0 17 0;
#X connect 19 0 21 0;
#X connect 20 0 1 0;
#X connect 21 0 20 0;
#X connect 22 0 6 0;
#X connect 23 0 6 0;
#X connect 24 0 39 0;
#X connect 25 0 40 0;
#X connect 26 0 42 0;
#X connect 27 0 24 0;
#X connect 27 1 25 0;
#X connect 27 2 32 0;
#X connect 27 3 26 0;
#X connect 27 4 33 0;
#X connect 27 5 35 0;
#X connect 28 0 1 0;
#X connect 29 0 1 0;
#X connect 30 0 1 0;
#X connect 31 0 1 0;
#X connect 32 0 41 0;
#X connect 33 0 43 0;
#X connect 34 0 1 0;
#X connect 35 0 104 0;
#X connect 36 0 1 0;
#X connect 37 0 27 0;
#X connect 38 0 27 0;
#X connect 39 0 28 0;
#X connect 40 0 29 0;
#X connect 41 0 30 0;
#X connect 42 0 31 0;
#X connect 43 0 34 0;
#X connect 44 0 105 0;
#X connect 45 0 106 0;
#X connect 46 0 108 0;
#X connect 47 0 44 0;
#X connect 47 1 45 0;
#X connect 47 2 52 0;
#X connect 47 3 46 0;
#X connect 47 4 53 0;
#X connect 47 5 55 0;
#X connect 48 0 1 0;
#X connect 49 0 1 0;
#X connect 50 0 1 0;
#X connect 51 0 1 0;
#X connect 52 0 107 0;
#X connect 53 0 109 0;
#X connect 54 0 1 0;
#X connect 55 0 110 0;
#X connect 56 0 1 0;
#X connect 57 0 47 0;
#X connect 58 0 47 0;
#X connect 59 0 111 0;
#X connect 60 0 112 0;
#X connect 61 0 114 0;
#X connect 62 0 59 0;
#X connect 62 1 60 0;
#X connect 62 2 67 0;
#X connect 62 3 61 0;
#X connect 62 4 68 0;
#X connect 62 5 70 0;
#X connect 63 0 1 0;
#X connect 64 0 1 0;
#X connect 65 0 1 0;
#X connect 66 0 1 0;
#X connect 67 0 113 0;
#X connect 68 0 115 0;
#X connect 69 0 1 0;
#X connect 70 0 116 0;
#X connect 71 0 1 0;
#X connect 72 0 62 0;
#X connect 73 0 62 0;
#X connect 74 0 117 0;
#X connect 75 0 118 0;
#X connect 76 0 120 0;
#X connect 77 0 74 0;
#X connect 77 1 75 0;
#X connect 77 2 82 0;
#X connect 77 3 76 0;
#X connect 77 4 83 0;
#X connect 77 5 85 0;
#X connect 78 0 1 0;
#X connect 79 0 1 0;
#X connect 80 0 1 0;
#X connect 81 0 1 0;
#X connect 82 0 119 0;
#X connect 83 0 121 0;
#X connect 84 0 1 0;
#X connect 85 0 122 0;
#X connect 86 0 1 0;
#X connect 87 0 77 0;
#X connect 88 0 77 0;
#X connect 89 0 123 0;
#X connect 90 0 124 0;
#X connect 91 0 126 0;
#X connect 92 0 89 0;
#X connect 92 1 90 0;
#X connect 92 2 97 0;
#X connect 92 3 91 0;
#X connect 92 4 98 0;
#X connect 92 5 100 0;
#X connect 93 0 1 0;
#X connect 94 0 1 0;
#X connect 95 0 1 0;
#X connect 96 0 1 0;
#X connect 97 0 125 0;
#X connect 98 0 127 0;
#X connect 99 0 1 0;
#X connect 100 0 128 0;
#X connect 101 0 1 0;
#X connect 102 0 92 0;
#X connect 103 0 92 0;
#X connect 104 0 36 0;
#X connect 105 0 48 0;
#X connect 106 0 49 0;
#X connect 107 0 50 0;
#X connect 108 0 51 0;
#X connect 109 0 54 0;
#X connect 110 0 56 0;
#X connect 111 0 63 0;
#X connect 112 0 64 0;
#X connect 113 0 65 0;
#X connect 114 0 66 0;
#X connect 115 0 69 0;
#X connect 116 0 71 0;
#X connect 117 0 78 0;
#X connect 118 0 79 0;
#X connect 119 0 80 0;
#X connect 120 0 81 0;
#X connect 121 0 84 0;
#X connect 122 0 86 0;
#X connect 123 0 93 0;
#X connect 124 0 94 0;
#X connect 125 0 95 0;
#X connect 126 0 96 0;
#X connect 127 0 99 0;
#X connect 128 0 101 0;
#X connect 129 0 22 0;
#X connect 130 0 22 0;
#X connect 130 1 23 0;
#X connect 131 0 72 0;
#X connect 131 1 73 0;
#X connect 132 0 102 0;
#X connect 132 1 103 0;
#X connect 133 0 37 0;
#X connect 133 1 38 0;
#X connect 134 0 87 0;
#X connect 134 1 88 0;
#X connect 135 0 57 0;
#X connect 135 1 58 0;
#X connect 136 0 38 0;
#X connect 137 0 58 0;
#X connect 138 0 73 0;
#X connect 139 0 88 0;
#X connect 140 0 103 0;
#X restore 224 294 pd matrixCommands;
#X obj 16 222 counter 5, f 22;
#X obj 16 146 sel 5;
#X connect 0 0 28 1;
#X connect 1 0 28 2;
#X connect 3 0 28 3;
#X connect 4 0 28 4;
#X connect 6 0 28 5;
#X connect 7 0 28 6;
#X connect 9 0 28 7;
#X connect 10 0 28 8;
#X connect 12 0 28 9;
#X connect 13 0 28 10;
#X connect 20 0 28 11;
#X connect 21 0 28 12;
#X connect 24 0 25 2;
#X connect 24 0 56 2;
#X connect 25 0 57 0;
#X connect 26 0 27 0;
#X connect 27 0 25 0;
#X connect 28 0 30 0;
#X connect 28 1 31 0;
#X connect 28 2 32 0;
#X connect 28 3 33 0;
#X connect 28 4 35 0;
#X connect 28 5 36 0;
#X connect 28 6 38 0;
#X connect 28 7 39 0;
#X connect 28 8 41 0;
#X connect 28 9 42 0;
#X connect 28 10 44 0;
#X connect 28 11 45 0;
#X connect 55 0 28 0;
#X connect 56 0 55 0;
#X connect 57 0 56 0;
