#N canvas 229 150 848 537 12;
#X obj 257 709 output~;
#X obj 258 655 *~;
#X obj 316 655 *~;
#X obj 461 503 vsl 15 128 0 1 0 0 empty empty empty 0 -9 0 10 #fcfcfc
#000000 #000000 0 1;
#X obj 23 21 tgl 15 0 empty empty empty 17 7 0 10 #fcfcfc #000000 #000000
0 1;
#X msg 23 41 \; pd dsp \$1;
#X obj 229 22 adc~ 1;
#X obj 256 55 delwrite~ liveBuffer 5000;
#N canvas 91 117 450 300 delreadhierarchy 0;
#X obj 39 195 outlet~;
#X obj 39 59 inlet~;
#X text 88 60 inlet for signals;
#X obj 39 133 vd~ liveBuffer;
#X text 90 77 to control(in real time) delay time position;
#X connect 1 0 3 0;
#X connect 3 0 0 0;
#X restore 285 477 pd delreadhierarchy;
#X obj 560 562 line~;
#X obj 577 676 hsl 128 15 0 4000 0 0 empty empty empty -2 -8 0 10 #fcfcfc
#000000 #000000 0 1;
#X obj 667 607 snapshot~;
#X obj 669 512 metro 50;
#X obj 664 468 tgl 15 0 empty empty empty 17 7 0 10 #fcfcfc #000000
#000000 0 1;
#X msg 548 469 4000 \, 0 2000;
#X obj 285 448 line~;
#X obj 404 422 print;
#X floatatom 285 330 5 0 0 0 - - - 0;
#X obj 407 313 hsl 128 15 0 5000 0 0 empty empty empty -2 -8 0 10 #fcfcfc
#000000 #000000 0 1;
#X msg 285 372 0 \, \$1 100;
#X connect 1 0 0 0;
#X connect 2 0 0 1;
#X connect 3 0 2 1;
#X connect 3 0 1 1;
#X connect 4 0 5 0;
#X connect 6 0 7 0;
#X connect 6 0 1 0;
#X connect 8 0 2 0;
#X connect 9 0 11 0;
#X connect 11 0 10 0;
#X connect 12 0 11 0;
#X connect 13 0 12 0;
#X connect 14 0 9 0;
#X connect 15 0 8 0;
#X connect 17 0 19 0;
#X connect 18 0 17 0;
#X connect 19 0 16 0;
#X connect 19 0 15 0;
