#N canvas 229 150 848 537 12;
#X obj 358 387 *~;
#X obj 416 387 *~;
#X obj 340 48 delwrite~ liveBuffer 5000;
#N canvas 91 117 450 300 delreadhierarchy 0;
#X obj 39 195 outlet~;
#X obj 39 59 inlet~;
#X text 88 60 inlet for signals;
#X obj 39 133 vd~ liveBuffer;
#X text 90 77 to control(in real time) delay time position;
#X connect 1 0 3 0;
#X connect 3 0 0 0;
#X restore 385 185 pd delreadhierarchy;
#X obj 385 156 line~;
#X floatatom 385 98 5 0 5000 0 - - - 0;
#X msg 385 127 0 \, \$1 100;
#X obj 340 19 inlet~;
#X obj 629 22 inlet;
#X obj 629 50 f \$1;
#X obj 562 22 loadbang;
#X obj 358 417 outlet~;
#X obj 416 417 outlet~;
#X text 14 17 inlet~ = for the audiosignal;
#X text 13 38 inlet/argument \$1 = playback time in ms;
#X text 15 87 outlet~ #1 = audio out Left;
#X text 15 105 outlet~ #2 = audio out Right;
#X obj 692 25 inlet;
#X obj 692 50 f \$2;
#X text 13 55 inlet/argument \$2 = buffer amplitude;
#X floatatom 502 354 5 0 1 0 - - - 0;
#X connect 0 0 11 0;
#X connect 1 0 12 0;
#X connect 3 0 0 0;
#X connect 3 0 1 0;
#X connect 4 0 3 0;
#X connect 5 0 6 0;
#X connect 6 0 4 0;
#X connect 7 0 2 0;
#X connect 8 0 9 0;
#X connect 9 0 5 0;
#X connect 10 0 9 0;
#X connect 10 0 18 0;
#X connect 17 0 18 0;
#X connect 18 0 20 0;
#X connect 20 0 1 1;
#X connect 20 0 0 1;
