#N canvas 882 315 811 529 12;
#X obj 253 393 output~;
#X obj 254 339 *~;
#X obj 312 339 *~;
#X obj 416 185 vsl 15 128 0 1 0 0 empty empty empty 0 -9 0 10 #fcfcfc
#000000 #000000 0 1;
#X obj 81 114 tgl 15 0 empty empty empty 17 7 0 10 #fcfcfc #000000
#000000 0 1;
#X msg 81 134 \; pd dsp \$1;
#X obj 258 173 adc~ 1 2;
#X connect 1 0 0 0;
#X connect 2 0 0 1;
#X connect 3 0 2 1;
#X connect 3 0 1 1;
#X connect 4 0 5 0;
#X connect 6 0 1 0;
#X connect 6 1 2 0;
