#N canvas 0 25 1920 967 12;
#N canvas 929 186 644 620 RMS 0;
#X obj 52 29 inlet~;
#X obj 52 53 env~ 512;
#X obj 52 77 dbtorms~;
#X obj 246 133 +~ 0;
#X obj 229 351 /~;
#X obj 229 375 outlet~;
#X obj 51 161 -~;
#X obj 51 224 *~;
#X obj 51 295 +~;
#X obj 69 131 r \$0-thresh;
#X obj 69 193 r \$0-ratio;
#X obj 69 261 r \$0-thresh;
#X text 283 134 -> for cosmetic purpose only;
#X obj 458 59 switch~;
#X obj 458 31 inlet;
#X connect 0 0 1 0;
#X connect 1 0 2 0;
#X connect 2 0 3 0;
#X connect 2 0 6 0;
#X connect 3 0 4 1;
#X connect 4 0 5 0;
#X connect 6 0 7 0;
#X connect 7 0 8 0;
#X connect 8 0 4 0;
#X connect 9 0 6 1;
#X connect 10 0 7 1;
#X connect 11 0 8 1;
#X connect 14 0 13 0;
#X restore 226 202 pd RMS GAIN COMPUTATION;
#N canvas 736 311 482 627 PEAK 0;
#X obj 46 50 inlet~;
#X obj 46 84 abs~;
#X obj 46 161 -~;
#X obj 46 321 +~;
#X obj 240 379 /~;
#X obj 240 424 outlet~;
#X obj 46 242 *~;
#X obj 63 128 r \$0-thresh;
#X obj 64 207 r \$0-ratio;
#X obj 64 288 r \$0-thresh;
#X text 292 135 -> for cosmetic purpose only;
#X obj 253 135 +~ 0;
#X obj 303 34 inlet;
#X obj 303 58 switch~;
#X connect 0 0 1 0;
#X connect 1 0 2 0;
#X connect 1 0 11 0;
#X connect 2 0 6 0;
#X connect 3 0 4 0;
#X connect 4 0 5 0;
#X connect 6 0 3 0;
#X connect 7 0 2 1;
#X connect 8 0 6 1;
#X connect 9 0 3 1;
#X connect 11 0 4 1;
#X connect 12 0 13 0;
#X restore 434 203 pd PEAK GAIN COMPUTATION;
#X obj 34 25 inlet~;
#N canvas 1040 363 450 300 delwrite 0;
#X obj 53 23 inlet~;
#X obj 53 74 delwrite~ \$0-comp 500;
#X obj 53 143 outlet~;
#X connect 0 0 1 0;
#X restore 37 217 pd delwrite;
#N canvas 343 191 450 300 delread 0;
#X obj 86 82 delread~ \$0-comp 0;
#X obj 86 139 outlet~;
#X obj 86 28 inlet lookahead;
#X obj 11 27 inlet~;
#X connect 0 0 1 0;
#X connect 2 0 0 0;
#X restore 38 319 pd delread;
#X obj 105 273 r \$0-lookahead;
#X obj 435 293 clip~ 0 1;
#X obj 435 366 lop~;
#X obj 460 333 r \$0-response;
#X obj 271 404 *~;
#X obj 270 570 *~;
#X obj 288 530 line~;
#X obj 288 453 r \$0-gain;
#X obj 288 492 pack f 5;
#X obj 270 626 outlet~;
#X obj 350 37 r \$0-rmspeak;
#X obj 350 80 t f f;
#X obj 350 121 == 0;
#X obj 716 38 inlet control;
#X obj 714 245 route threshold ratio response gain rmspeak lookahead
;
#X obj 717 790 + 100;
#X obj 717 828 dbtorms;
#X obj 717 864 s \$0-thresh;
#X obj 777 691 swap 1;
#X obj 776 736 /;
#X obj 776 764 s \$0-ratio;
#X obj 841 588 swap 1000;
#X obj 841 639 /;
#X obj 841 666 s \$0-response;
#X obj 902 485 + 100;
#X obj 902 516 dbtorms;
#X obj 902 549 s \$0-gain;
#X obj 964 452 s \$0-rmspeak;
#X obj 1025 416 s \$0-lookahead;
#X obj 824 39 loadbang;
#X obj 935 98 f \$1;
#X obj 1050 98 f \$2;
#X obj 1149 98 f \$3;
#X obj 1263 100 f \$4;
#X obj 1354 99 f \$5;
#X obj 1460 100 f \$6;
#X msg 935 133 threshold \$1;
#X msg 1050 132 ratio \$1;
#X msg 1149 131 response \$1;
#X msg 1263 131 gain \$1;
#X msg 1354 130 rmspeak \$1;
#X msg 1460 130 lookahead \$1;
#X msg 1190 419 threshold \$1;
#X msg 1305 418 ratio \$1;
#X msg 1404 417 response \$1;
#X msg 1519 417 gain \$1;
#X msg 1609 416 rmspeak \$1;
#X msg 1715 416 lookahead \$1;
#X obj 1191 547 outlet;
#X obj 1191 478 t a;
#X obj 935 39 inlet;
#X obj 1050 40 inlet;
#X obj 1149 40 inlet;
#X obj 1354 42 inlet;
#X obj 1460 43 inlet;
#X obj 1263 41 inlet;
#X connect 0 0 6 0;
#X connect 1 0 6 0;
#X connect 2 0 0 0;
#X connect 2 0 1 0;
#X connect 2 0 3 0;
#X connect 3 0 4 0;
#X connect 4 0 9 0;
#X connect 5 0 4 1;
#X connect 6 0 7 0;
#X connect 7 0 9 1;
#X connect 8 0 7 1;
#X connect 9 0 10 0;
#X connect 10 0 14 0;
#X connect 11 0 10 1;
#X connect 12 0 13 0;
#X connect 13 0 11 0;
#X connect 15 0 16 0;
#X connect 16 0 17 0;
#X connect 16 1 1 1;
#X connect 17 0 0 1;
#X connect 18 0 19 0;
#X connect 19 0 20 0;
#X connect 19 0 47 0;
#X connect 19 1 23 0;
#X connect 19 1 48 0;
#X connect 19 2 26 0;
#X connect 19 2 49 0;
#X connect 19 3 29 0;
#X connect 19 3 50 0;
#X connect 19 4 32 0;
#X connect 19 4 51 0;
#X connect 19 5 33 0;
#X connect 19 5 52 0;
#X connect 20 0 21 0;
#X connect 21 0 22 0;
#X connect 23 0 24 0;
#X connect 23 1 24 1;
#X connect 24 0 25 0;
#X connect 26 0 27 0;
#X connect 26 1 27 1;
#X connect 27 0 28 0;
#X connect 29 0 30 0;
#X connect 30 0 31 0;
#X connect 34 0 35 0;
#X connect 34 0 36 0;
#X connect 34 0 37 0;
#X connect 34 0 38 0;
#X connect 34 0 39 0;
#X connect 34 0 40 0;
#X connect 35 0 41 0;
#X connect 36 0 42 0;
#X connect 37 0 43 0;
#X connect 38 0 44 0;
#X connect 39 0 45 0;
#X connect 40 0 46 0;
#X connect 41 0 19 0;
#X connect 42 0 19 0;
#X connect 43 0 19 0;
#X connect 44 0 19 0;
#X connect 45 0 19 0;
#X connect 46 0 19 0;
#X connect 47 0 54 0;
#X connect 48 0 54 0;
#X connect 49 0 54 0;
#X connect 50 0 54 0;
#X connect 51 0 54 0;
#X connect 52 0 54 0;
#X connect 54 0 53 0;
#X connect 55 0 35 0;
#X connect 56 0 36 0;
#X connect 57 0 37 0;
#X connect 58 0 39 0;
#X connect 59 0 40 0;
#X connect 60 0 38 0;
