#N canvas 218 64 1081 670 12;
#X obj 53 534 line;
#X obj 60 188 timer;
#X obj 60 213 >;
#X floatatom 106 236 5 0 0 0 - - - 0;
#X obj 60 139 bng 15 250 50 0 empty empty empty 17 7 0 10 #fcfcfc #000000
#000000;
#X obj 126 162 loadbang;
#X obj 60 161 t b b;
#X obj 103 318 sel 1;
#X obj 56 434 bng 15 250 50 0 empty empty empty 17 7 0 10 #fcfcfc #000000
#000000;
#X obj 205 372 cyclone/counter 1;
#X obj 205 399 route 0 1;
#X obj 276 322 loadbang;
#X obj 254 346 bng 15 250 50 0 empty empty empty 17 7 0 10 #fcfcfc
#000000 #000000;
#X obj 343 261 tgl 15 0 empty empty empty 17 7 0 10 #fcfcfc #000000
#000000 0 1;
#X obj 191 348 bng 15 250 50 0 empty empty empty 17 7 0 10 #fcfcfc
#000000 #000000;
#X msg 126 188 100;
#X obj 100 533 line;
#X msg 206 421 0;
#X obj 191 317 del 1;
#X obj 268 297 cyclone/togedge;
#X obj 191 231 cyclone/togedge;
#X obj 479 387 bng 15 250 50 0 empty empty empty 17 7 0 10 #fcfcfc
#000000 #000000;
#X msg 479 407 0;
#X msg 250 420 1;
#X obj 479 353 sel 1;
#X obj 191 295 metro 200;
#X obj 67 648 outlet;
#X text 26 27 inlet = delay_time_input;
#X text 25 49 outlet = delay_amplitude_function;
#X text 117 648 delay_amplitude_function;
#X obj 259 123 inlet;
#X text 303 123 delay_time_input;
#X obj 567 38 expr $f1 * pow($f1 \, 5);
#X text 570 57 making line object exponential \, change last number
in equation to get a faster curve, f 21;
#X obj 53 577 expr $f1 * pow($f1 \, 5);
#X obj 94 602 expr $f1 * pow($f1 \, 5);
#X msg 52 503 0 \, 1 100 0.5;
#X msg 179 504 1 \, 0 800 0.5;
#X connect 0 0 34 0;
#X connect 1 0 2 0;
#X connect 2 0 3 0;
#X connect 3 0 7 0;
#X connect 3 0 20 0;
#X connect 4 0 6 0;
#X connect 5 0 15 0;
#X connect 6 0 1 0;
#X connect 6 1 1 1;
#X connect 7 0 8 0;
#X connect 8 0 36 0;
#X connect 9 0 10 0;
#X connect 10 0 17 0;
#X connect 10 1 23 0;
#X connect 11 0 12 0;
#X connect 12 0 9 2;
#X connect 13 0 19 0;
#X connect 13 0 25 0;
#X connect 14 0 9 0;
#X connect 15 0 2 1;
#X connect 16 0 35 0;
#X connect 18 0 14 0;
#X connect 19 0 12 0;
#X connect 20 0 13 0;
#X connect 21 0 22 0;
#X connect 21 0 37 0;
#X connect 22 0 13 0;
#X connect 23 0 24 0;
#X connect 24 0 21 0;
#X connect 25 0 18 0;
#X connect 30 0 4 0;
#X connect 30 0 9 2;
#X connect 34 0 26 0;
#X connect 35 0 26 0;
#X connect 36 0 0 0;
#X connect 37 0 16 0;
