#N canvas 219 59 979 676 12;
#X obj 408 710 outlet;
#X obj 488 38 inlet;
#X floatatom 313 341 5 0 0 0 - - - 0;
#X obj 492 105 r smplTime;
#X floatatom 299 190 5 0 0 0 - - - 0;
#X obj 492 129 * 1000;
#X text 580 105 in seconds;
#X text 545 130 in milliseconds;
#X obj 260 428 bng 15 250 50 0 empty empty empty 17 7 0 10 #fcfcfc
#000000 #000000;
#X obj 260 117 tgl 15 0 empty empty empty 17 7 0 10 #fcfcfc #000000
#000000 0 1;
#X obj 285 164 random;
#X obj 193 331 tgl 15 0 empty empty empty 17 7 0 10 #fcfcfc #000000
#000000 0 1;
#X obj 281 137 metro 2000;
#X obj 364 473 expr if($f1 < $f2 \, $f1 \, $f2);
#X obj 347 280 bng 15 250 50 0 empty empty empty 17 7 0 10 #fcfcfc
#000000 #000000;
#X obj 285 613 pack \$0 f f f, f 24;
#X obj 285 641 cyclone/zl slice 1;
#X obj 192 351 metro 3000;
#X obj 259 84 r toggleToSoundPicker;
#X floatatom 370 318 5 0 0 0 - - - 0;
#X obj 394 15 loadbang;
#X obj 446 85 f \$1;
#X msg 415 50 2000;
#X text 13 15 inlet/argument \$1 = sets new end point in smpl-loop
;
#X obj 362 408 +;
#X obj 323 377 pipe 1;
#X floatatom 364 444 5 0 0 0 - - - 0;
#X floatatom 364 499 5 0 0 0 - - - 0;
#X obj 502 665 print;
#X connect 1 0 21 0;
#X connect 2 0 15 1;
#X connect 2 0 25 0;
#X connect 3 0 5 0;
#X connect 5 0 10 1;
#X connect 5 0 13 1;
#X connect 8 0 15 0;
#X connect 9 0 11 0;
#X connect 9 0 12 0;
#X connect 10 0 4 0;
#X connect 10 0 2 0;
#X connect 10 0 14 0;
#X connect 11 0 17 0;
#X connect 12 0 10 0;
#X connect 13 0 27 0;
#X connect 14 0 19 0;
#X connect 15 0 16 0;
#X connect 16 1 0 0;
#X connect 16 1 28 0;
#X connect 17 0 8 0;
#X connect 18 0 9 0;
#X connect 19 0 24 1;
#X connect 19 0 15 3;
#X connect 20 0 22 0;
#X connect 21 0 19 0;
#X connect 22 0 21 0;
#X connect 24 0 26 0;
#X connect 25 0 24 0;
#X connect 26 0 13 0;
#X connect 27 0 15 2;
