#N canvas 218 58 979 676 12;
#X obj 408 710 outlet;
#X obj 488 38 inlet;
#X obj 492 105 r smplTime;
#X obj 492 129 * 1000;
#X obj 260 117 tgl 15 0 empty empty empty 17 7 0 10 #fcfcfc #000000
#000000 0 1;
#X obj 285 164 random;
#X obj 364 473 expr if($f1 < $f2 \, $f1 \, $f2);
#X obj 347 280 bng 15 250 50 0 empty empty empty 17 7 0 10 #fcfcfc
#000000 #000000;
#X obj 285 613 pack \$0 f f f, f 24;
#X obj 285 641 cyclone/zl slice 1;
#X obj 259 84 r toggleToSoundPicker;
#X obj 394 15 loadbang;
#X obj 446 85 f \$1;
#X msg 415 50 2000;
#X obj 362 408 +;
#X obj 323 377 pipe 1;
#X obj 281 137 metro 2000;
#X obj 46 187 random 1000;
#X obj 151 168 del 1;
#X msg 199 194 1200;
#X obj 199 168 del 2;
#X obj 48 261 expr if($f1 < $f2 \, $f1 \, $f3);
#X obj 66 305 sel 1200;
#X obj 86 133 metro 1000;
#X msg 151 194 800;
#X obj 409 325 int;
#X connect 1 0 12 0;
#X connect 2 0 3 0;
#X connect 3 0 5 1;
#X connect 3 0 6 1;
#X connect 4 0 16 0;
#X connect 4 0 23 0;
#X connect 5 0 7 0;
#X connect 5 0 15 0;
#X connect 5 0 8 1;
#X connect 6 0 8 2;
#X connect 7 0 25 0;
#X connect 8 0 9 0;
#X connect 9 1 0 0;
#X connect 10 0 4 0;
#X connect 11 0 13 0;
#X connect 12 0 25 0;
#X connect 13 0 12 0;
#X connect 14 0 6 0;
#X connect 15 0 14 0;
#X connect 16 0 5 0;
#X connect 17 0 21 0;
#X connect 18 0 24 0;
#X connect 19 0 21 2;
#X connect 20 0 19 0;
#X connect 21 0 22 0;
#X connect 22 0 8 0;
#X connect 23 0 17 0;
#X connect 23 0 18 0;
#X connect 23 0 20 0;
#X connect 24 0 21 1;
#X connect 25 0 8 3;
#X connect 25 0 14 1;
