#N canvas 489 51 1431 653 12;
#X obj 130 429 tgl 15 0 empty empty empty 17 7 0 10 #fcfcfc #000000
#000000 0 1;
#X obj 186 429 tgl 15 0 empty empty empty 17 7 0 10 #fcfcfc #000000
#000000 0 1;
#X msg 130 450 0 0 \$1;
#X obj 242 428 tgl 15 0 empty empty empty 17 7 0 10 #fcfcfc #000000
#000000 0 1;
#X obj 298 429 tgl 15 0 empty empty empty 17 7 0 10 #fcfcfc #000000
#000000 0 1;
#X obj 355 429 tgl 15 0 empty empty empty 17 7 0 10 #fcfcfc #000000
#000000 0 1;
#X msg 186 450 1 0 \$1;
#X msg 242 450 2 0 \$1;
#X msg 298 450 3 0 \$1;
#X msg 355 450 4 0 \$1;
#X obj 130 386 unpack f f f f f f;
#X obj 411 429 tgl 15 0 empty empty empty 17 7 0 10 #fcfcfc #000000
#000000 0 1;
#X msg 411 450 5 0 \$1;
#X msg 76 327 1 0 0 0 0 0;
#X msg 163 327 0 1 0 0 0 0;
#X msg 250 327 0 0 1 0 0 0;
#X msg 337 327 0 0 0 1 0 0;
#X msg 424 327 0 0 0 0 1 0;
#X msg 511 327 0 0 0 0 0 1;
#X obj 199 592 outlet;
#X text 11 43 outlet#1 = sends out routing commands;
#X obj 76 76 inlet;
#X obj 76 296 route 0 1 2 3 4 5, f 75;
#X obj 76 191 vradio 15 1 0 6 empty empty empty 0 -8 0 10 #fcfcfc #000000
#000000 0;
#X obj 18 534 cyclone/zl change;
#X obj 144 524 cyclone/zl change;
#X obj 270 516 cyclone/zl change;
#X obj 396 506 cyclone/zl change;
#X obj 522 495 cyclone/zl change;
#X obj 648 485 cyclone/zl change;
#X obj 76 162 change;
#X obj 76 135 int;
#X obj 76 108 cyclone/scale 0 127 0 5.99;
#X text 11 11 inlet/argument\$1 = recieves <f>(0-127) \, chooses which
buffer is being send to main outlets, f 84;
#X obj 7 296 loadbang;
#X connect 0 0 2 0;
#X connect 1 0 6 0;
#X connect 2 0 24 0;
#X connect 3 0 7 0;
#X connect 4 0 8 0;
#X connect 5 0 9 0;
#X connect 6 0 25 0;
#X connect 7 0 26 0;
#X connect 8 0 27 0;
#X connect 9 0 28 0;
#X connect 10 0 0 0;
#X connect 10 1 1 0;
#X connect 10 2 3 0;
#X connect 10 3 4 0;
#X connect 10 4 5 0;
#X connect 10 5 11 0;
#X connect 11 0 12 0;
#X connect 12 0 29 0;
#X connect 13 0 10 0;
#X connect 14 0 10 0;
#X connect 15 0 10 0;
#X connect 16 0 10 0;
#X connect 17 0 10 0;
#X connect 18 0 10 0;
#X connect 21 0 32 0;
#X connect 22 0 13 0;
#X connect 22 1 14 0;
#X connect 22 2 15 0;
#X connect 22 3 16 0;
#X connect 22 4 17 0;
#X connect 22 5 18 0;
#X connect 23 0 22 0;
#X connect 24 0 19 0;
#X connect 25 0 19 0;
#X connect 26 0 19 0;
#X connect 27 0 19 0;
#X connect 28 0 19 0;
#X connect 29 0 19 0;
#X connect 30 0 23 0;
#X connect 31 0 30 0;
#X connect 32 0 31 0;
#X connect 34 0 13 0;
