#N canvas 455 113 974 690 12;
#X obj 290 356 lop~ 10;
#X obj 272 477 +~;
#X obj 638 838 outlet~;
#X obj 222 211 inlet~;
#X obj 500 162 inlet;
#X obj 500 237 f \$1;
#X obj 428 202 loadbang;
#X obj 568 237 f \$2;
#X obj 567 162 inlet;
#X obj 290 452 *~;
#X obj 556 404 lop~ 10;
#X text 26 70 inlet/argument \$1 = delay_time;
#X text 26 90 inlet/argument \$2 = delay_feedback;
#X text 26 110 inlet/argument \$3 = delay_amplitude;
#X obj 715 165 inlet;
#X obj 715 239 f \$3;
#X obj 290 380 *~ 200;
#X obj 405 840 outlet~;
#X obj 39 209 inlet~;
#X obj 39 496 +~;
#X obj 57 469 *~;
#X obj 57 418 *~ 200;
#X text 27 15 inlet~ (1) = for the left audiosignal;
#X text 27 31 inlet~ (2) = for the right audiosignal;
#X obj 57 442 delread4~ scratchdelayL01;
#X obj 52 535 delwrite~ scratchdelayL01 2000;
#X obj 291 409 delread4~ scratchdelayR01;
#X obj 332 512 delwrite~ scratchdelayR01 2000;
#X obj 638 780 *~;
#X obj 405 788 *~;
#X connect 0 0 16 0;
#X connect 0 0 21 0;
#X connect 1 0 27 0;
#X connect 1 0 28 0;
#X connect 3 0 1 0;
#X connect 4 0 5 0;
#X connect 5 0 0 0;
#X connect 6 0 5 0;
#X connect 6 0 7 0;
#X connect 6 0 15 0;
#X connect 7 0 10 0;
#X connect 8 0 7 0;
#X connect 9 0 1 1;
#X connect 10 0 9 1;
#X connect 10 0 20 1;
#X connect 14 0 15 0;
#X connect 15 0 28 1;
#X connect 15 0 29 1;
#X connect 16 0 26 0;
#X connect 18 0 19 0;
#X connect 19 0 25 0;
#X connect 19 0 29 0;
#X connect 20 0 19 1;
#X connect 21 0 24 0;
#X connect 24 0 20 0;
#X connect 26 0 9 0;
#X connect 28 0 2 0;
#X connect 29 0 17 0;
