#N canvas 63 25 1748 967 12;
#X obj 171 284 route 1 2 3 4 5 6, f 54;
#X obj 171 204 cyclone/counter 5;
#X obj 171 234 + 1;
#X obj 171 160 metro 1000;
#X obj 382 152 cyclone/togedge;
#X obj 136 127 * 1000;
#X obj 173 93 f \$1;
#X obj 48 35 inlet;
#X obj 28 70 loadbang;
#X obj 383 60 inlet;
#X obj 171 336 outlet;
#X obj 233 336 outlet;
#X obj 296 335 outlet;
#X obj 358 335 outlet;
#X obj 421 334 outlet;
#X obj 483 334 outlet;
#X connect 0 0 10 0;
#X connect 0 1 11 0;
#X connect 0 2 12 0;
#X connect 0 3 13 0;
#X connect 0 4 14 0;
#X connect 0 5 15 0;
#X connect 1 0 2 0;
#X connect 2 0 0 0;
#X connect 3 0 1 0;
#X connect 4 1 1 2;
#X connect 5 0 3 1;
#X connect 6 0 5 0;
#X connect 7 0 6 0;
#X connect 8 0 6 0;
#X connect 9 0 4 0;
#X connect 9 0 3 0;
