#N canvas 0 25 1440 787 12;
#N canvas 1020 271 450 278 (subpatch) 0;
#X array depository06L 88200 float 0;
#X coords 0 0.5 88199 -0.5 200 140 1 0 0;
#X restore 620 28 graph;
#X obj 47 258 sel 1 0;
#X msg 70 301 stop;
#X msg 957 230 start;
#X msg 1028 231 stop;
#X msg 863 190 loop \$1;
#X msg 1104 202 loopinterp \$1;
#X msg 1219 269 interptime \$1;
#N canvas 382 407 450 278 (subpatch) 0;
#X array depository06R 88200 float 0;
#X coords 0 0.5 88199 -0.5 200 140 1 0 0;
#X restore 619 196 graph;
#X obj 161 226 sel 1 0;
#X msg 184 273 stop;
#X obj 18 176 inlet~;
#X obj 132 140 inlet~;
#X obj 279 68 f \$1;
#N canvas 397 25 1043 787 sampletimer 0;
#X obj 33 170 inlet;
#X obj 38 290 tgl 15 0 empty empty empty 17 7 0 10 #fcfcfc #000000
#000000 0 1;
#X obj 150 305 tgl 15 0 empty empty empty 17 7 0 10 #fcfcfc #000000
#000000 0 1;
#X obj 150 346 metro 1000;
#X obj 168 498 t b b b;
#X obj 131 234 t f f;
#X msg 131 209 1;
#X obj 39 556 outlet;
#X obj 293 172 inlet;
#X text 31 11 inlet#1 = inlet for BANG;
#X text 32 61 outlet = outlet for on/off(1/0) message(on in the seconds
specified in 'counter' object), f 88;
#X floatatom 293 395 5 0 0 0 - - - 0;
#X text 30 37 inlet#2 = sets samplingtime in seconds;
#X obj 150 450 sel 10;
#X obj 150 394 cyclone/counter 10;
#X connect 0 0 6 0;
#X connect 1 0 7 0;
#X connect 2 0 3 0;
#X connect 3 0 14 0;
#X connect 4 0 1 0;
#X connect 4 1 14 2;
#X connect 4 2 2 0;
#X connect 5 0 1 0;
#X connect 5 1 2 0;
#X connect 6 0 5 0;
#X connect 8 0 11 0;
#X connect 11 0 13 1;
#X connect 11 0 14 4;
#X connect 13 0 4 0;
#X connect 14 0 13 0;
#X restore 197 156 pd sampletimer;
#X obj 279 25 loadbang;
#X obj 862 481 outlet~;
#X obj 1062 481 outlet~;
#X obj 863 121 loadbang;
#X msg 863 145 1;
#X obj 1258 166 loadbang;
#X obj 410 26 inlet;
#X obj 539 26 inlet;
#X obj 348 326 * 44100;
#X obj 532 326 * 44100;
#X obj 348 299 float;
#X obj 532 299 float;
#X obj 852 25 inlet;
#X obj 957 95 cyclone/togedge;
#X msg 1258 196 500;
#X obj 1330 372 cyclone/prepend start;
#X obj 1331 306 cyclone/join 3, f 20;
#X obj 1331 156 unpack f f f, f 20;
#X obj 1331 199 pipe 1;
#X obj 1331 28 inlet;
#X obj 1143 111 r smplStop;
#X obj 1101 86 r smplStart;
#X obj 1231 30 inlet;
#X obj 133 306 tabwrite~ depository06R;
#X obj 20 342 tabwrite~ depository06L;
#X msg 348 350 \; depository06L resize \$1;
#X msg 532 350 \; depository06R resize \$1;
#X obj 862 439 cyclone/play~ depository06L;
#X obj 1062 439 cyclone/play~ depository06R;
#X connect 1 0 39 0;
#X connect 1 1 2 0;
#X connect 2 0 39 0;
#X connect 3 0 42 0;
#X connect 3 0 43 0;
#X connect 4 0 42 0;
#X connect 4 0 43 0;
#X connect 5 0 42 0;
#X connect 5 0 43 0;
#X connect 6 0 42 0;
#X connect 6 0 43 0;
#X connect 7 0 42 0;
#X connect 7 0 43 0;
#X connect 9 0 38 0;
#X connect 9 1 10 0;
#X connect 10 0 38 0;
#X connect 11 0 39 0;
#X connect 12 0 38 0;
#X connect 13 0 14 1;
#X connect 13 0 26 1;
#X connect 13 0 25 1;
#X connect 14 0 1 0;
#X connect 14 0 9 0;
#X connect 15 0 13 0;
#X connect 18 0 19 0;
#X connect 19 0 5 0;
#X connect 19 0 6 0;
#X connect 20 0 29 0;
#X connect 21 0 13 0;
#X connect 22 0 25 0;
#X connect 22 0 26 0;
#X connect 22 0 14 0;
#X connect 23 0 40 0;
#X connect 24 0 41 0;
#X connect 25 0 23 0;
#X connect 26 0 24 0;
#X connect 27 0 28 0;
#X connect 28 0 3 0;
#X connect 28 1 4 0;
#X connect 29 0 7 0;
#X connect 30 0 42 0;
#X connect 30 0 43 0;
#X connect 31 0 30 0;
#X connect 32 0 33 0;
#X connect 32 1 31 1;
#X connect 32 2 31 2;
#X connect 33 0 31 0;
#X connect 34 0 32 0;
#X connect 35 0 4 0;
#X connect 36 0 3 0;
#X connect 37 0 7 0;
#X connect 42 0 16 0;
#X connect 43 0 17 0;
