#N canvas 719 136 1081 670 12;
#X obj 69 387 line;
#X obj 51 121 timer;
#X obj 51 146 >;
#X obj 117 93 loadbang;
#X obj 51 94 t b b;
#X obj 51 209 sel 1;
#X obj 198 246 cyclone/counter 1;
#X obj 198 273 route 0 1;
#X obj 269 216 loadbang;
#X obj 336 164 tgl 15 0 empty empty empty 17 7 0 10 #fcfcfc #000000
#000000 0 1;
#X msg 117 119 100;
#X obj 116 386 line;
#X msg 199 295 0;
#X obj 184 211 del 1;
#X obj 261 191 cyclone/togedge;
#X obj 184 139 cyclone/togedge;
#X msg 314 356 0;
#X msg 243 294 1;
#X obj 344 322 sel 1;
#X obj 184 189 metro 200;
#X obj 83 501 outlet;
#X obj 250 56 inlet;
#X obj 69 430 expr $f1 * pow($f1 \, 5);
#X obj 110 455 expr $f1 * pow($f1 \, 5);
#X msg 68 356 0 \, 1 100 0.5;
#X msg 195 357 1 \, 0 800 0.5;
#X obj 51 177 int;
#X connect 0 0 22 0;
#X connect 1 0 2 0;
#X connect 2 0 26 0;
#X connect 3 0 10 0;
#X connect 4 0 1 0;
#X connect 4 1 1 1;
#X connect 5 0 24 0;
#X connect 6 0 7 0;
#X connect 7 0 12 0;
#X connect 7 1 17 0;
#X connect 8 0 6 2;
#X connect 9 0 14 0;
#X connect 9 0 19 0;
#X connect 10 0 2 1;
#X connect 11 0 23 0;
#X connect 13 0 6 0;
#X connect 14 0 6 2;
#X connect 15 0 9 0;
#X connect 16 0 9 0;
#X connect 17 0 18 0;
#X connect 18 0 16 0;
#X connect 18 0 25 0;
#X connect 19 0 13 0;
#X connect 21 0 6 2;
#X connect 21 0 4 0;
#X connect 22 0 20 0;
#X connect 23 0 20 0;
#X connect 24 0 0 0;
#X connect 25 0 11 0;
#X connect 26 0 5 0;
#X connect 26 0 15 0;
